<?xml version="1.0" encoding="utf-8" standalone="no"?>
<!DOCTYPE svg PUBLIC "-//W3C//DTD SVG 1.1//EN"
  "http://www.w3.org/Graphics/SVG/1.1/DTD/svg11.dtd">
<svg xmlns:xlink="http://www.w3.org/1999/xlink" width="425.19685pt" height="283.464567pt" viewBox="0 0 425.19685 283.464567" xmlns="http://www.w3.org/2000/svg" version="1.1">
 <metadata>
  <rdf:RDF xmlns:dc="http://purl.org/dc/elements/1.1/" xmlns:cc="http://creativecommons.org/ns#" xmlns:rdf="http://www.w3.org/1999/02/22-rdf-syntax-ns#">
   <cc:Work>
    <dc:type rdf:resource="http://purl.org/dc/dcmitype/StillImage"/>
    <dc:date>2023-03-07T12:54:04.752187</dc:date>
    <dc:format>image/svg+xml</dc:format>
    <dc:creator>
     <cc:Agent>
      <dc:title>Matplotlib v3.7.0, https://matplotlib.org/</dc:title>
     </cc:Agent>
    </dc:creator>
   </cc:Work>
  </rdf:RDF>
 </metadata>
 <defs>
  <style type="text/css">*{stroke-linejoin: round; stroke-linecap: butt}</style>
 </defs>
 <g id="figure_1">
  <g id="patch_1">
   <path d="M 0 283.464567 
L 425.19685 283.464567 
L 425.19685 0 
L 0 0 
z
" style="fill: #ffffff"/>
  </g>
  <g id="axes_1">
   <g id="patch_2">
    <path d="M 53.149606 252.283465 
L 382.677165 252.283465 
L 382.677165 34.015748 
L 53.149606 34.015748 
z
" style="fill: #ffffff"/>
   </g>
   <g id="matplotlib.axis_1">
    <g id="xtick_1">
     <g id="line2d_1">
      <path d="M 53.149606 252.283465 
L 53.149606 34.015748 
" clip-path="url(#pfce1c6da78)" style="fill: none; stroke: #c0c0c0; stroke-width: 0.8; stroke-linecap: square"/>
     </g>
     <g id="line2d_2">
      <defs>
       <path id="mcde94724bb" d="M 0 0 
L 0 3.5 
" style="stroke: #000000; stroke-width: 0.8"/>
      </defs>
      <g>
       <use xlink:href="#mcde94724bb" x="53.149606" y="252.283465" style="stroke: #000000; stroke-width: 0.8"/>
      </g>
     </g>
     <g id="text_1">
      <!-- 0 -->
      <g transform="translate(50.649606 266.227215) scale(0.1 -0.1)">
       <defs>
        <path id="TimesNewRomanPSMT-30" d="M 231 2094 
Q 231 2819 450 3342 
Q 669 3866 1031 4122 
Q 1313 4325 1613 4325 
Q 2100 4325 2488 3828 
Q 2972 3213 2972 2159 
Q 2972 1422 2759 906 
Q 2547 391 2217 158 
Q 1888 -75 1581 -75 
Q 975 -75 572 641 
Q 231 1244 231 2094 
z
M 844 2016 
Q 844 1141 1059 588 
Q 1238 122 1591 122 
Q 1759 122 1940 273 
Q 2122 425 2216 781 
Q 2359 1319 2359 2297 
Q 2359 3022 2209 3506 
Q 2097 3866 1919 4016 
Q 1791 4119 1609 4119 
Q 1397 4119 1231 3928 
Q 1006 3669 925 3112 
Q 844 2556 844 2016 
z
" transform="scale(0.015625)"/>
       </defs>
       <use xlink:href="#TimesNewRomanPSMT-30"/>
      </g>
     </g>
    </g>
    <g id="xtick_2">
     <g id="line2d_3">
      <path d="M 97.086614 252.283465 
L 97.086614 34.015748 
" clip-path="url(#pfce1c6da78)" style="fill: none; stroke: #c0c0c0; stroke-width: 0.8; stroke-linecap: square"/>
     </g>
     <g id="line2d_4">
      <g>
       <use xlink:href="#mcde94724bb" x="97.086614" y="252.283465" style="stroke: #000000; stroke-width: 0.8"/>
      </g>
     </g>
     <g id="text_2">
      <!-- 2 -->
      <g transform="translate(94.586614 266.227215) scale(0.1 -0.1)">
       <defs>
        <path id="TimesNewRomanPSMT-32" d="M 2934 816 
L 2638 0 
L 138 0 
L 138 116 
Q 1241 1122 1691 1759 
Q 2141 2397 2141 2925 
Q 2141 3328 1894 3587 
Q 1647 3847 1303 3847 
Q 991 3847 742 3664 
Q 494 3481 375 3128 
L 259 3128 
Q 338 3706 661 4015 
Q 984 4325 1469 4325 
Q 1984 4325 2329 3994 
Q 2675 3663 2675 3213 
Q 2675 2891 2525 2569 
Q 2294 2063 1775 1497 
Q 997 647 803 472 
L 1909 472 
Q 2247 472 2383 497 
Q 2519 522 2628 598 
Q 2738 675 2819 816 
L 2934 816 
z
" transform="scale(0.015625)"/>
       </defs>
       <use xlink:href="#TimesNewRomanPSMT-32"/>
      </g>
     </g>
    </g>
    <g id="xtick_3">
     <g id="line2d_5">
      <path d="M 141.023622 252.283465 
L 141.023622 34.015748 
" clip-path="url(#pfce1c6da78)" style="fill: none; stroke: #c0c0c0; stroke-width: 0.8; stroke-linecap: square"/>
     </g>
     <g id="line2d_6">
      <g>
       <use xlink:href="#mcde94724bb" x="141.023622" y="252.283465" style="stroke: #000000; stroke-width: 0.8"/>
      </g>
     </g>
     <g id="text_3">
      <!-- 4 -->
      <g transform="translate(138.523622 266.227215) scale(0.1 -0.1)">
       <defs>
        <path id="TimesNewRomanPSMT-34" d="M 2978 1563 
L 2978 1119 
L 2409 1119 
L 2409 0 
L 1894 0 
L 1894 1119 
L 100 1119 
L 100 1519 
L 2066 4325 
L 2409 4325 
L 2409 1563 
L 2978 1563 
z
M 1894 1563 
L 1894 3666 
L 406 1563 
L 1894 1563 
z
" transform="scale(0.015625)"/>
       </defs>
       <use xlink:href="#TimesNewRomanPSMT-34"/>
      </g>
     </g>
    </g>
    <g id="xtick_4">
     <g id="line2d_7">
      <path d="M 184.96063 252.283465 
L 184.96063 34.015748 
" clip-path="url(#pfce1c6da78)" style="fill: none; stroke: #c0c0c0; stroke-width: 0.8; stroke-linecap: square"/>
     </g>
     <g id="line2d_8">
      <g>
       <use xlink:href="#mcde94724bb" x="184.96063" y="252.283465" style="stroke: #000000; stroke-width: 0.8"/>
      </g>
     </g>
     <g id="text_4">
      <!-- 6 -->
      <g transform="translate(182.46063 266.227215) scale(0.1 -0.1)">
       <defs>
        <path id="TimesNewRomanPSMT-36" d="M 2869 4325 
L 2869 4209 
Q 2456 4169 2195 4045 
Q 1934 3922 1679 3669 
Q 1425 3416 1258 3105 
Q 1091 2794 978 2366 
Q 1428 2675 1881 2675 
Q 2316 2675 2634 2325 
Q 2953 1975 2953 1425 
Q 2953 894 2631 456 
Q 2244 -75 1606 -75 
Q 1172 -75 869 213 
Q 275 772 275 1663 
Q 275 2231 503 2743 
Q 731 3256 1154 3653 
Q 1578 4050 1965 4187 
Q 2353 4325 2688 4325 
L 2869 4325 
z
M 925 2138 
Q 869 1716 869 1456 
Q 869 1156 980 804 
Q 1091 453 1309 247 
Q 1469 100 1697 100 
Q 1969 100 2183 356 
Q 2397 613 2397 1088 
Q 2397 1622 2184 2012 
Q 1972 2403 1581 2403 
Q 1463 2403 1327 2353 
Q 1191 2303 925 2138 
z
" transform="scale(0.015625)"/>
       </defs>
       <use xlink:href="#TimesNewRomanPSMT-36"/>
      </g>
     </g>
    </g>
    <g id="xtick_5">
     <g id="line2d_9">
      <path d="M 228.897638 252.283465 
L 228.897638 34.015748 
" clip-path="url(#pfce1c6da78)" style="fill: none; stroke: #c0c0c0; stroke-width: 0.8; stroke-linecap: square"/>
     </g>
     <g id="line2d_10">
      <g>
       <use xlink:href="#mcde94724bb" x="228.897638" y="252.283465" style="stroke: #000000; stroke-width: 0.8"/>
      </g>
     </g>
     <g id="text_5">
      <!-- 8 -->
      <g transform="translate(226.397638 266.227215) scale(0.1 -0.1)">
       <defs>
        <path id="TimesNewRomanPSMT-38" d="M 1228 2134 
Q 725 2547 579 2797 
Q 434 3047 434 3316 
Q 434 3728 753 4026 
Q 1072 4325 1600 4325 
Q 2113 4325 2425 4047 
Q 2738 3769 2738 3413 
Q 2738 3175 2569 2928 
Q 2400 2681 1866 2347 
Q 2416 1922 2594 1678 
Q 2831 1359 2831 1006 
Q 2831 559 2490 242 
Q 2150 -75 1597 -75 
Q 994 -75 656 303 
Q 388 606 388 966 
Q 388 1247 577 1523 
Q 766 1800 1228 2134 
z
M 1719 2469 
Q 2094 2806 2194 3001 
Q 2294 3197 2294 3444 
Q 2294 3772 2109 3958 
Q 1925 4144 1606 4144 
Q 1288 4144 1088 3959 
Q 888 3775 888 3528 
Q 888 3366 970 3203 
Q 1053 3041 1206 2894 
L 1719 2469 
z
M 1375 2016 
Q 1116 1797 991 1539 
Q 866 1281 866 981 
Q 866 578 1086 336 
Q 1306 94 1647 94 
Q 1984 94 2187 284 
Q 2391 475 2391 747 
Q 2391 972 2272 1150 
Q 2050 1481 1375 2016 
z
" transform="scale(0.015625)"/>
       </defs>
       <use xlink:href="#TimesNewRomanPSMT-38"/>
      </g>
     </g>
    </g>
    <g id="xtick_6">
     <g id="line2d_11">
      <path d="M 272.834646 252.283465 
L 272.834646 34.015748 
" clip-path="url(#pfce1c6da78)" style="fill: none; stroke: #c0c0c0; stroke-width: 0.8; stroke-linecap: square"/>
     </g>
     <g id="line2d_12">
      <g>
       <use xlink:href="#mcde94724bb" x="272.834646" y="252.283465" style="stroke: #000000; stroke-width: 0.8"/>
      </g>
     </g>
     <g id="text_6">
      <!-- 10 -->
      <g transform="translate(267.834646 266.227215) scale(0.1 -0.1)">
       <defs>
        <path id="TimesNewRomanPSMT-31" d="M 750 3822 
L 1781 4325 
L 1884 4325 
L 1884 747 
Q 1884 391 1914 303 
Q 1944 216 2037 169 
Q 2131 122 2419 116 
L 2419 0 
L 825 0 
L 825 116 
Q 1125 122 1212 167 
Q 1300 213 1334 289 
Q 1369 366 1369 747 
L 1369 3034 
Q 1369 3497 1338 3628 
Q 1316 3728 1258 3775 
Q 1200 3822 1119 3822 
Q 1003 3822 797 3725 
L 750 3822 
z
" transform="scale(0.015625)"/>
       </defs>
       <use xlink:href="#TimesNewRomanPSMT-31"/>
       <use xlink:href="#TimesNewRomanPSMT-30" x="50"/>
      </g>
     </g>
    </g>
    <g id="xtick_7">
     <g id="line2d_13">
      <path d="M 316.771654 252.283465 
L 316.771654 34.015748 
" clip-path="url(#pfce1c6da78)" style="fill: none; stroke: #c0c0c0; stroke-width: 0.8; stroke-linecap: square"/>
     </g>
     <g id="line2d_14">
      <g>
       <use xlink:href="#mcde94724bb" x="316.771654" y="252.283465" style="stroke: #000000; stroke-width: 0.8"/>
      </g>
     </g>
     <g id="text_7">
      <!-- 12 -->
      <g transform="translate(311.771654 266.227215) scale(0.1 -0.1)">
       <use xlink:href="#TimesNewRomanPSMT-31"/>
       <use xlink:href="#TimesNewRomanPSMT-32" x="50"/>
      </g>
     </g>
    </g>
    <g id="xtick_8">
     <g id="line2d_15">
      <path d="M 360.708661 252.283465 
L 360.708661 34.015748 
" clip-path="url(#pfce1c6da78)" style="fill: none; stroke: #c0c0c0; stroke-width: 0.8; stroke-linecap: square"/>
     </g>
     <g id="line2d_16">
      <g>
       <use xlink:href="#mcde94724bb" x="360.708661" y="252.283465" style="stroke: #000000; stroke-width: 0.8"/>
      </g>
     </g>
     <g id="text_8">
      <!-- 14 -->
      <g transform="translate(355.708661 266.227215) scale(0.1 -0.1)">
       <use xlink:href="#TimesNewRomanPSMT-31"/>
       <use xlink:href="#TimesNewRomanPSMT-34" x="50"/>
      </g>
     </g>
    </g>
    <g id="text_9">
     <!-- Process time -->
     <g transform="translate(187.417448 280.698777) scale(0.12 -0.12)">
      <defs>
       <path id="TimesNewRomanPSMT-50" d="M 1313 1984 
L 1313 750 
Q 1313 350 1400 253 
Q 1519 116 1759 116 
L 1922 116 
L 1922 0 
L 106 0 
L 106 116 
L 266 116 
Q 534 116 650 291 
Q 713 388 713 750 
L 713 3488 
Q 713 3888 628 3984 
Q 506 4122 266 4122 
L 106 4122 
L 106 4238 
L 1659 4238 
Q 2228 4238 2556 4120 
Q 2884 4003 3109 3725 
Q 3334 3447 3334 3066 
Q 3334 2547 2992 2222 
Q 2650 1897 2025 1897 
Q 1872 1897 1694 1919 
Q 1516 1941 1313 1984 
z
M 1313 2163 
Q 1478 2131 1606 2115 
Q 1734 2100 1825 2100 
Q 2150 2100 2386 2351 
Q 2622 2603 2622 3003 
Q 2622 3278 2509 3514 
Q 2397 3750 2190 3867 
Q 1984 3984 1722 3984 
Q 1563 3984 1313 3925 
L 1313 2163 
z
" transform="scale(0.015625)"/>
       <path id="TimesNewRomanPSMT-72" d="M 1038 2947 
L 1038 2303 
Q 1397 2947 1775 2947 
Q 1947 2947 2059 2842 
Q 2172 2738 2172 2600 
Q 2172 2478 2090 2393 
Q 2009 2309 1897 2309 
Q 1788 2309 1652 2417 
Q 1516 2525 1450 2525 
Q 1394 2525 1328 2463 
Q 1188 2334 1038 2041 
L 1038 669 
Q 1038 431 1097 309 
Q 1138 225 1241 169 
Q 1344 113 1538 113 
L 1538 0 
L 72 0 
L 72 113 
Q 291 113 397 181 
Q 475 231 506 341 
Q 522 394 522 644 
L 522 1753 
Q 522 2253 501 2348 
Q 481 2444 426 2487 
Q 372 2531 291 2531 
Q 194 2531 72 2484 
L 41 2597 
L 906 2947 
L 1038 2947 
z
" transform="scale(0.015625)"/>
       <path id="TimesNewRomanPSMT-6f" d="M 1600 2947 
Q 2250 2947 2644 2453 
Q 2978 2031 2978 1484 
Q 2978 1100 2793 706 
Q 2609 313 2286 112 
Q 1963 -88 1566 -88 
Q 919 -88 538 428 
Q 216 863 216 1403 
Q 216 1797 411 2186 
Q 606 2575 925 2761 
Q 1244 2947 1600 2947 
z
M 1503 2744 
Q 1338 2744 1170 2645 
Q 1003 2547 900 2300 
Q 797 2053 797 1666 
Q 797 1041 1045 587 
Q 1294 134 1700 134 
Q 2003 134 2200 384 
Q 2397 634 2397 1244 
Q 2397 2006 2069 2444 
Q 1847 2744 1503 2744 
z
" transform="scale(0.015625)"/>
       <path id="TimesNewRomanPSMT-63" d="M 2631 1088 
Q 2516 522 2178 217 
Q 1841 -88 1431 -88 
Q 944 -88 581 321 
Q 219 731 219 1428 
Q 219 2103 620 2525 
Q 1022 2947 1584 2947 
Q 2006 2947 2278 2723 
Q 2550 2500 2550 2259 
Q 2550 2141 2473 2067 
Q 2397 1994 2259 1994 
Q 2075 1994 1981 2113 
Q 1928 2178 1911 2362 
Q 1894 2547 1784 2644 
Q 1675 2738 1481 2738 
Q 1169 2738 978 2506 
Q 725 2200 725 1697 
Q 725 1184 976 792 
Q 1228 400 1656 400 
Q 1963 400 2206 609 
Q 2378 753 2541 1131 
L 2631 1088 
z
" transform="scale(0.015625)"/>
       <path id="TimesNewRomanPSMT-65" d="M 681 1784 
Q 678 1147 991 784 
Q 1303 422 1725 422 
Q 2006 422 2214 576 
Q 2422 731 2563 1106 
L 2659 1044 
Q 2594 616 2278 264 
Q 1963 -88 1488 -88 
Q 972 -88 605 314 
Q 238 716 238 1394 
Q 238 2128 614 2539 
Q 991 2950 1559 2950 
Q 2041 2950 2350 2633 
Q 2659 2316 2659 1784 
L 681 1784 
z
M 681 1966 
L 2006 1966 
Q 1991 2241 1941 2353 
Q 1863 2528 1708 2628 
Q 1553 2728 1384 2728 
Q 1125 2728 920 2526 
Q 716 2325 681 1966 
z
" transform="scale(0.015625)"/>
       <path id="TimesNewRomanPSMT-73" d="M 2050 2947 
L 2050 1972 
L 1947 1972 
Q 1828 2431 1642 2597 
Q 1456 2763 1169 2763 
Q 950 2763 815 2647 
Q 681 2531 681 2391 
Q 681 2216 781 2091 
Q 878 1963 1175 1819 
L 1631 1597 
Q 2266 1288 2266 781 
Q 2266 391 1970 151 
Q 1675 -88 1309 -88 
Q 1047 -88 709 6 
Q 606 38 541 38 
Q 469 38 428 -44 
L 325 -44 
L 325 978 
L 428 978 
Q 516 541 762 319 
Q 1009 97 1316 97 
Q 1531 97 1667 223 
Q 1803 350 1803 528 
Q 1803 744 1651 891 
Q 1500 1038 1047 1263 
Q 594 1488 453 1669 
Q 313 1847 313 2119 
Q 313 2472 555 2709 
Q 797 2947 1181 2947 
Q 1350 2947 1591 2875 
Q 1750 2828 1803 2828 
Q 1853 2828 1881 2850 
Q 1909 2872 1947 2947 
L 2050 2947 
z
" transform="scale(0.015625)"/>
       <path id="TimesNewRomanPSMT-20" transform="scale(0.015625)"/>
       <path id="TimesNewRomanPSMT-74" d="M 1031 3803 
L 1031 2863 
L 1700 2863 
L 1700 2644 
L 1031 2644 
L 1031 788 
Q 1031 509 1111 412 
Q 1191 316 1316 316 
Q 1419 316 1516 380 
Q 1613 444 1666 569 
L 1788 569 
Q 1678 263 1478 108 
Q 1278 -47 1066 -47 
Q 922 -47 784 33 
Q 647 113 581 261 
Q 516 409 516 719 
L 516 2644 
L 63 2644 
L 63 2747 
Q 234 2816 414 2980 
Q 594 3144 734 3369 
Q 806 3488 934 3803 
L 1031 3803 
z
" transform="scale(0.015625)"/>
       <path id="TimesNewRomanPSMT-69" d="M 928 4444 
Q 1059 4444 1151 4351 
Q 1244 4259 1244 4128 
Q 1244 3997 1151 3903 
Q 1059 3809 928 3809 
Q 797 3809 703 3903 
Q 609 3997 609 4128 
Q 609 4259 701 4351 
Q 794 4444 928 4444 
z
M 1188 2947 
L 1188 647 
Q 1188 378 1227 289 
Q 1266 200 1342 156 
Q 1419 113 1622 113 
L 1622 0 
L 231 0 
L 231 113 
Q 441 113 512 153 
Q 584 194 626 287 
Q 669 381 669 647 
L 669 1750 
Q 669 2216 641 2353 
Q 619 2453 572 2492 
Q 525 2531 444 2531 
Q 356 2531 231 2484 
L 188 2597 
L 1050 2947 
L 1188 2947 
z
" transform="scale(0.015625)"/>
       <path id="TimesNewRomanPSMT-6d" d="M 1050 2338 
Q 1363 2650 1419 2697 
Q 1559 2816 1721 2881 
Q 1884 2947 2044 2947 
Q 2313 2947 2506 2790 
Q 2700 2634 2766 2338 
Q 3088 2713 3309 2830 
Q 3531 2947 3766 2947 
Q 3994 2947 4170 2830 
Q 4347 2713 4450 2447 
Q 4519 2266 4519 1878 
L 4519 647 
Q 4519 378 4559 278 
Q 4591 209 4675 161 
Q 4759 113 4950 113 
L 4950 0 
L 3538 0 
L 3538 113 
L 3597 113 
Q 3781 113 3884 184 
Q 3956 234 3988 344 
Q 4000 397 4000 647 
L 4000 1878 
Q 4000 2228 3916 2372 
Q 3794 2572 3525 2572 
Q 3359 2572 3192 2489 
Q 3025 2406 2788 2181 
L 2781 2147 
L 2788 2013 
L 2788 647 
Q 2788 353 2820 281 
Q 2853 209 2943 161 
Q 3034 113 3253 113 
L 3253 0 
L 1806 0 
L 1806 113 
Q 2044 113 2133 169 
Q 2222 225 2256 338 
Q 2272 391 2272 647 
L 2272 1878 
Q 2272 2228 2169 2381 
Q 2031 2581 1784 2581 
Q 1616 2581 1450 2491 
Q 1191 2353 1050 2181 
L 1050 647 
Q 1050 366 1089 281 
Q 1128 197 1204 155 
Q 1281 113 1516 113 
L 1516 0 
L 100 0 
L 100 113 
Q 297 113 375 155 
Q 453 197 493 289 
Q 534 381 534 647 
L 534 1741 
Q 534 2213 506 2350 
Q 484 2453 437 2492 
Q 391 2531 309 2531 
Q 222 2531 100 2484 
L 53 2597 
L 916 2947 
L 1050 2947 
L 1050 2338 
z
" transform="scale(0.015625)"/>
      </defs>
      <use xlink:href="#TimesNewRomanPSMT-50"/>
      <use xlink:href="#TimesNewRomanPSMT-72" x="55.615234"/>
      <use xlink:href="#TimesNewRomanPSMT-6f" x="88.916016"/>
      <use xlink:href="#TimesNewRomanPSMT-63" x="138.916016"/>
      <use xlink:href="#TimesNewRomanPSMT-65" x="183.300781"/>
      <use xlink:href="#TimesNewRomanPSMT-73" x="227.685547"/>
      <use xlink:href="#TimesNewRomanPSMT-73" x="266.601562"/>
      <use xlink:href="#TimesNewRomanPSMT-20" x="305.517578"/>
      <use xlink:href="#TimesNewRomanPSMT-74" x="330.517578"/>
      <use xlink:href="#TimesNewRomanPSMT-69" x="358.300781"/>
      <use xlink:href="#TimesNewRomanPSMT-6d" x="386.083984"/>
      <use xlink:href="#TimesNewRomanPSMT-65" x="463.867188"/>
     </g>
    </g>
   </g>
   <g id="matplotlib.axis_2">
    <g id="ytick_1">
     <g id="line2d_17">
      <path d="M 53.149606 252.283465 
L 382.677165 252.283465 
" clip-path="url(#pfce1c6da78)" style="fill: none; stroke: #c0c0c0; stroke-width: 0.8; stroke-linecap: square"/>
     </g>
     <g id="line2d_18">
      <defs>
       <path id="md2d2ece97f" d="M 0 0 
L -3.5 0 
" style="stroke: #000000; stroke-width: 0.8"/>
      </defs>
      <g>
       <use xlink:href="#md2d2ece97f" x="53.149606" y="252.283465" style="stroke: #000000; stroke-width: 0.8"/>
      </g>
     </g>
     <g id="text_10">
      <!-- 0.0 -->
      <g transform="translate(33.649606 255.75534) scale(0.1 -0.1)">
       <defs>
        <path id="TimesNewRomanPSMT-2e" d="M 800 606 
Q 947 606 1047 504 
Q 1147 403 1147 259 
Q 1147 116 1045 14 
Q 944 -88 800 -88 
Q 656 -88 554 14 
Q 453 116 453 259 
Q 453 406 554 506 
Q 656 606 800 606 
z
" transform="scale(0.015625)"/>
       </defs>
       <use xlink:href="#TimesNewRomanPSMT-30"/>
       <use xlink:href="#TimesNewRomanPSMT-2e" x="50"/>
       <use xlink:href="#TimesNewRomanPSMT-30" x="75"/>
      </g>
     </g>
    </g>
    <g id="ytick_2">
     <g id="line2d_19">
      <path d="M 53.149606 208.629921 
L 382.677165 208.629921 
" clip-path="url(#pfce1c6da78)" style="fill: none; stroke: #c0c0c0; stroke-width: 0.8; stroke-linecap: square"/>
     </g>
     <g id="line2d_20">
      <g>
       <use xlink:href="#md2d2ece97f" x="53.149606" y="208.629921" style="stroke: #000000; stroke-width: 0.8"/>
      </g>
     </g>
     <g id="text_11">
      <!-- 0.2 -->
      <g transform="translate(33.649606 212.101796) scale(0.1 -0.1)">
       <use xlink:href="#TimesNewRomanPSMT-30"/>
       <use xlink:href="#TimesNewRomanPSMT-2e" x="50"/>
       <use xlink:href="#TimesNewRomanPSMT-32" x="75"/>
      </g>
     </g>
    </g>
    <g id="ytick_3">
     <g id="line2d_21">
      <path d="M 53.149606 164.976378 
L 382.677165 164.976378 
" clip-path="url(#pfce1c6da78)" style="fill: none; stroke: #c0c0c0; stroke-width: 0.8; stroke-linecap: square"/>
     </g>
     <g id="line2d_22">
      <g>
       <use xlink:href="#md2d2ece97f" x="53.149606" y="164.976378" style="stroke: #000000; stroke-width: 0.8"/>
      </g>
     </g>
     <g id="text_12">
      <!-- 0.4 -->
      <g transform="translate(33.649606 168.448253) scale(0.1 -0.1)">
       <use xlink:href="#TimesNewRomanPSMT-30"/>
       <use xlink:href="#TimesNewRomanPSMT-2e" x="50"/>
       <use xlink:href="#TimesNewRomanPSMT-34" x="75"/>
      </g>
     </g>
    </g>
    <g id="ytick_4">
     <g id="line2d_23">
      <path d="M 53.149606 121.322835 
L 382.677165 121.322835 
" clip-path="url(#pfce1c6da78)" style="fill: none; stroke: #c0c0c0; stroke-width: 0.8; stroke-linecap: square"/>
     </g>
     <g id="line2d_24">
      <g>
       <use xlink:href="#md2d2ece97f" x="53.149606" y="121.322835" style="stroke: #000000; stroke-width: 0.8"/>
      </g>
     </g>
     <g id="text_13">
      <!-- 0.6 -->
      <g transform="translate(33.649606 124.79471) scale(0.1 -0.1)">
       <use xlink:href="#TimesNewRomanPSMT-30"/>
       <use xlink:href="#TimesNewRomanPSMT-2e" x="50"/>
       <use xlink:href="#TimesNewRomanPSMT-36" x="75"/>
      </g>
     </g>
    </g>
    <g id="ytick_5">
     <g id="line2d_25">
      <path d="M 53.149606 77.669291 
L 382.677165 77.669291 
" clip-path="url(#pfce1c6da78)" style="fill: none; stroke: #c0c0c0; stroke-width: 0.8; stroke-linecap: square"/>
     </g>
     <g id="line2d_26">
      <g>
       <use xlink:href="#md2d2ece97f" x="53.149606" y="77.669291" style="stroke: #000000; stroke-width: 0.8"/>
      </g>
     </g>
     <g id="text_14">
      <!-- 0.8 -->
      <g transform="translate(33.649606 81.141166) scale(0.1 -0.1)">
       <use xlink:href="#TimesNewRomanPSMT-30"/>
       <use xlink:href="#TimesNewRomanPSMT-2e" x="50"/>
       <use xlink:href="#TimesNewRomanPSMT-38" x="75"/>
      </g>
     </g>
    </g>
    <g id="ytick_6">
     <g id="line2d_27">
      <path d="M 53.149606 34.015748 
L 382.677165 34.015748 
" clip-path="url(#pfce1c6da78)" style="fill: none; stroke: #c0c0c0; stroke-width: 0.8; stroke-linecap: square"/>
     </g>
     <g id="line2d_28">
      <g>
       <use xlink:href="#md2d2ece97f" x="53.149606" y="34.015748" style="stroke: #000000; stroke-width: 0.8"/>
      </g>
     </g>
     <g id="text_15">
      <!-- 1.0 -->
      <g transform="translate(33.649606 37.487623) scale(0.1 -0.1)">
       <use xlink:href="#TimesNewRomanPSMT-31"/>
       <use xlink:href="#TimesNewRomanPSMT-2e" x="50"/>
       <use xlink:href="#TimesNewRomanPSMT-30" x="75"/>
      </g>
     </g>
    </g>
    <g id="text_16">
     <!-- Probability density -->
     <g transform="translate(27.060231 188.647419) rotate(-90) scale(0.12 -0.12)">
      <defs>
       <path id="TimesNewRomanPSMT-62" d="M 984 2369 
Q 1400 2947 1881 2947 
Q 2322 2947 2650 2570 
Q 2978 2194 2978 1541 
Q 2978 778 2472 313 
Q 2038 -88 1503 -88 
Q 1253 -88 995 3 
Q 738 94 469 275 
L 469 3241 
Q 469 3728 445 3840 
Q 422 3953 372 3993 
Q 322 4034 247 4034 
Q 159 4034 28 3984 
L -16 4094 
L 844 4444 
L 984 4444 
L 984 2369 
z
M 984 2169 
L 984 456 
Q 1144 300 1314 220 
Q 1484 141 1663 141 
Q 1947 141 2192 453 
Q 2438 766 2438 1363 
Q 2438 1913 2192 2208 
Q 1947 2503 1634 2503 
Q 1469 2503 1303 2419 
Q 1178 2356 984 2169 
z
" transform="scale(0.015625)"/>
       <path id="TimesNewRomanPSMT-61" d="M 1822 413 
Q 1381 72 1269 19 
Q 1100 -59 909 -59 
Q 613 -59 420 144 
Q 228 347 228 678 
Q 228 888 322 1041 
Q 450 1253 767 1440 
Q 1084 1628 1822 1897 
L 1822 2009 
Q 1822 2438 1686 2597 
Q 1550 2756 1291 2756 
Q 1094 2756 978 2650 
Q 859 2544 859 2406 
L 866 2225 
Q 866 2081 792 2003 
Q 719 1925 600 1925 
Q 484 1925 411 2006 
Q 338 2088 338 2228 
Q 338 2497 613 2722 
Q 888 2947 1384 2947 
Q 1766 2947 2009 2819 
Q 2194 2722 2281 2516 
Q 2338 2381 2338 1966 
L 2338 994 
Q 2338 584 2353 492 
Q 2369 400 2405 369 
Q 2441 338 2488 338 
Q 2538 338 2575 359 
Q 2641 400 2828 588 
L 2828 413 
Q 2478 -56 2159 -56 
Q 2006 -56 1915 50 
Q 1825 156 1822 413 
z
M 1822 616 
L 1822 1706 
Q 1350 1519 1213 1441 
Q 966 1303 859 1153 
Q 753 1003 753 825 
Q 753 600 887 451 
Q 1022 303 1197 303 
Q 1434 303 1822 616 
z
" transform="scale(0.015625)"/>
       <path id="TimesNewRomanPSMT-6c" d="M 1184 4444 
L 1184 647 
Q 1184 378 1223 290 
Q 1263 203 1344 158 
Q 1425 113 1647 113 
L 1647 0 
L 244 0 
L 244 113 
Q 441 113 512 153 
Q 584 194 625 287 
Q 666 381 666 647 
L 666 3247 
Q 666 3731 644 3842 
Q 622 3953 573 3993 
Q 525 4034 450 4034 
Q 369 4034 244 3984 
L 191 4094 
L 1044 4444 
L 1184 4444 
z
" transform="scale(0.015625)"/>
       <path id="TimesNewRomanPSMT-79" d="M 38 2863 
L 1372 2863 
L 1372 2747 
L 1306 2747 
Q 1166 2747 1095 2686 
Q 1025 2625 1025 2534 
Q 1025 2413 1128 2197 
L 1825 753 
L 2466 2334 
Q 2519 2463 2519 2588 
Q 2519 2644 2497 2672 
Q 2472 2706 2419 2726 
Q 2366 2747 2231 2747 
L 2231 2863 
L 3163 2863 
L 3163 2747 
Q 3047 2734 2984 2696 
Q 2922 2659 2847 2556 
Q 2819 2513 2741 2316 
L 1575 -541 
Q 1406 -956 1132 -1168 
Q 859 -1381 606 -1381 
Q 422 -1381 303 -1275 
Q 184 -1169 184 -1031 
Q 184 -900 270 -820 
Q 356 -741 506 -741 
Q 609 -741 788 -809 
Q 913 -856 944 -856 
Q 1038 -856 1148 -759 
Q 1259 -663 1372 -384 
L 1575 113 
L 547 2272 
Q 500 2369 397 2513 
Q 319 2622 269 2659 
Q 197 2709 38 2747 
L 38 2863 
z
" transform="scale(0.015625)"/>
       <path id="TimesNewRomanPSMT-64" d="M 2222 322 
Q 2013 103 1813 7 
Q 1613 -88 1381 -88 
Q 913 -88 563 304 
Q 213 697 213 1313 
Q 213 1928 600 2439 
Q 988 2950 1597 2950 
Q 1975 2950 2222 2709 
L 2222 3238 
Q 2222 3728 2198 3840 
Q 2175 3953 2125 3993 
Q 2075 4034 2000 4034 
Q 1919 4034 1784 3984 
L 1744 4094 
L 2597 4444 
L 2738 4444 
L 2738 1134 
Q 2738 631 2761 520 
Q 2784 409 2836 365 
Q 2888 322 2956 322 
Q 3041 322 3181 375 
L 3216 266 
L 2366 -88 
L 2222 -88 
L 2222 322 
z
M 2222 541 
L 2222 2016 
Q 2203 2228 2109 2403 
Q 2016 2578 1861 2667 
Q 1706 2756 1559 2756 
Q 1284 2756 1069 2509 
Q 784 2184 784 1559 
Q 784 928 1059 592 
Q 1334 256 1672 256 
Q 1956 256 2222 541 
z
" transform="scale(0.015625)"/>
       <path id="TimesNewRomanPSMT-6e" d="M 1034 2341 
Q 1538 2947 1994 2947 
Q 2228 2947 2397 2830 
Q 2566 2713 2666 2444 
Q 2734 2256 2734 1869 
L 2734 647 
Q 2734 375 2778 278 
Q 2813 200 2889 156 
Q 2966 113 3172 113 
L 3172 0 
L 1756 0 
L 1756 113 
L 1816 113 
Q 2016 113 2095 173 
Q 2175 234 2206 353 
Q 2219 400 2219 647 
L 2219 1819 
Q 2219 2209 2117 2386 
Q 2016 2563 1775 2563 
Q 1403 2563 1034 2156 
L 1034 647 
Q 1034 356 1069 288 
Q 1113 197 1189 155 
Q 1266 113 1500 113 
L 1500 0 
L 84 0 
L 84 113 
L 147 113 
Q 366 113 442 223 
Q 519 334 519 647 
L 519 1709 
Q 519 2225 495 2337 
Q 472 2450 423 2490 
Q 375 2531 294 2531 
Q 206 2531 84 2484 
L 38 2597 
L 900 2947 
L 1034 2947 
L 1034 2341 
z
" transform="scale(0.015625)"/>
      </defs>
      <use xlink:href="#TimesNewRomanPSMT-50"/>
      <use xlink:href="#TimesNewRomanPSMT-72" x="55.615234"/>
      <use xlink:href="#TimesNewRomanPSMT-6f" x="88.916016"/>
      <use xlink:href="#TimesNewRomanPSMT-62" x="138.916016"/>
      <use xlink:href="#TimesNewRomanPSMT-61" x="188.916016"/>
      <use xlink:href="#TimesNewRomanPSMT-62" x="233.300781"/>
      <use xlink:href="#TimesNewRomanPSMT-69" x="283.300781"/>
      <use xlink:href="#TimesNewRomanPSMT-6c" x="311.083984"/>
      <use xlink:href="#TimesNewRomanPSMT-69" x="338.867188"/>
      <use xlink:href="#TimesNewRomanPSMT-74" x="366.650391"/>
      <use xlink:href="#TimesNewRomanPSMT-79" x="394.433594"/>
      <use xlink:href="#TimesNewRomanPSMT-20" x="444.433594"/>
      <use xlink:href="#TimesNewRomanPSMT-64" x="469.433594"/>
      <use xlink:href="#TimesNewRomanPSMT-65" x="519.433594"/>
      <use xlink:href="#TimesNewRomanPSMT-6e" x="563.818359"/>
      <use xlink:href="#TimesNewRomanPSMT-73" x="613.818359"/>
      <use xlink:href="#TimesNewRomanPSMT-69" x="652.734375"/>
      <use xlink:href="#TimesNewRomanPSMT-74" x="680.517578"/>
      <use xlink:href="#TimesNewRomanPSMT-79" x="708.300781"/>
     </g>
    </g>
   </g>
   <g id="line2d_29">
    <path d="M 53.149606 252.283465 
L 56.478168 252.283465 
L 59.806729 252.283465 
L 63.13529 252.283465 
L 66.463851 252.283465 
L 69.792412 252.283465 
L 73.120974 252.283465 
L 76.449535 252.283465 
L 79.778096 252.283465 
L 83.106657 252.283465 
L 86.435218 252.283465 
L 89.76378 252.283465 
L 93.092341 252.283465 
L 96.420902 252.283465 
L 99.749463 118.067634 
L 103.078024 130.962568 
L 106.406586 142.618606 
L 109.735147 153.154778 
L 113.063708 162.678675 
L 116.392269 171.287553 
L 119.72083 179.069325 
L 123.049392 186.103453 
L 126.377953 192.461771 
L 129.706514 198.209206 
L 133.035075 203.404449 
L 136.363636 208.100554 
L 139.692198 212.345476 
L 143.020759 216.182562 
L 146.34932 219.650996 
L 149.677881 222.786196 
L 153.006442 225.620179 
L 156.335004 228.181883 
L 159.663565 230.497469 
L 162.992126 232.590582 
L 166.320687 234.482598 
L 169.649248 236.192836 
L 172.97781 237.73876 
L 176.306371 239.136159 
L 179.634932 240.399301 
L 182.963493 241.541085 
L 186.292054 242.573171 
L 189.620616 243.506098 
L 192.949177 244.349393 
L 196.277738 245.111668 
L 199.606299 245.800706 
L 202.93486 246.423544 
L 206.263422 246.986542 
L 209.591983 247.49545 
L 212.920544 247.955464 
L 216.249105 248.371281 
L 219.577666 248.747148 
L 222.906228 249.086904 
L 226.234789 249.394017 
L 229.56335 249.671624 
L 232.891911 249.922559 
L 236.220472 250.149386 
L 239.549034 250.35442 
L 242.877595 250.539755 
L 246.206156 250.707284 
L 249.534717 250.858717 
L 252.863278 250.995601 
L 256.19184 251.119334 
L 259.520401 251.231179 
L 262.848962 251.332279 
L 266.177523 251.423665 
L 269.506084 251.506271 
L 272.834646 251.580941 
L 276.163207 251.648437 
L 279.491768 251.709448 
L 282.820329 251.764597 
L 286.14889 251.814448 
L 289.477452 251.859509 
L 292.806013 251.900241 
L 296.134574 251.93706 
L 299.463135 251.970341 
L 302.791696 252.000425 
L 306.120258 252.027618 
L 309.448819 252.052199 
L 312.77738 252.074418 
L 316.105941 252.094502 
L 319.434503 252.112657 
L 322.763064 252.129067 
L 326.091625 252.143901 
L 329.420186 252.15731 
L 332.748747 252.16943 
L 336.077309 252.180386 
L 339.40587 252.19029 
L 342.734431 252.199242 
L 346.062992 252.207333 
L 349.391553 252.214648 
L 352.720115 252.221259 
L 356.048676 252.227236 
L 359.377237 252.232638 
L 362.705798 252.237521 
L 366.034359 252.241935 
L 369.362921 252.245925 
L 372.691482 252.249532 
L 376.020043 252.252792 
L 379.348604 252.255739 
L 382.677165 252.258403 
" clip-path="url(#pfce1c6da78)" style="fill: none; stroke-dasharray: 7.4,3.2; stroke-dashoffset: 0; stroke: #1f77b4; stroke-opacity: 0.85; stroke-width: 2"/>
   </g>
   <g id="line2d_30">
    <path d="M 53.149606 252.283465 
L 56.478168 252.283465 
L 59.806729 252.283465 
L 63.13529 252.283465 
L 66.463851 252.283465 
L 69.792412 252.283465 
L 73.120974 252.283465 
L 76.449535 252.283465 
L 79.778096 252.283465 
L 83.106657 252.283465 
L 86.435218 252.283465 
L 89.76378 252.283465 
L 93.092341 252.283465 
L 96.420902 252.283465 
L 99.749463 149.567339 
L 103.078024 157.061413 
L 106.406586 164.008727 
L 109.735147 170.449171 
L 113.063708 176.419726 
L 116.392269 181.954674 
L 119.72083 187.085799 
L 123.049392 191.842561 
L 126.377953 196.252273 
L 129.706514 200.340258 
L 133.035075 204.129987 
L 136.363636 207.64322 
L 139.692198 210.900132 
L 143.020759 213.919422 
L 146.34932 216.718427 
L 149.677881 219.31322 
L 153.006442 221.718698 
L 156.335004 223.948676 
L 159.663565 226.015956 
L 162.992126 227.932409 
L 166.320687 229.70904 
L 169.649248 231.356049 
L 172.97781 232.882894 
L 176.306371 234.298342 
L 179.634932 235.61052 
L 182.963493 236.826963 
L 186.292054 237.954655 
L 189.620616 239.000072 
L 192.949177 239.969216 
L 196.277738 240.867652 
L 199.606299 241.70054 
L 202.93486 242.47266 
L 206.263422 243.188447 
L 209.591983 243.852012 
L 212.920544 244.467163 
L 216.249105 245.037433 
L 219.577666 245.566097 
L 222.906228 246.05619 
L 226.234789 246.510526 
L 229.56335 246.931714 
L 232.891911 247.322173 
L 236.220472 247.684144 
L 239.549034 248.019707 
L 242.877595 248.330786 
L 246.206156 248.61917 
L 249.534717 248.886514 
L 252.863278 249.134352 
L 256.19184 249.364109 
L 259.520401 249.577102 
L 262.848962 249.774556 
L 266.177523 249.957603 
L 269.506084 250.127296 
L 272.834646 250.284608 
L 276.163207 250.430443 
L 279.491768 250.565638 
L 282.820329 250.690969 
L 286.14889 250.807156 
L 289.477452 250.914866 
L 292.806013 251.014718 
L 296.134574 251.107284 
L 299.463135 251.193097 
L 302.791696 251.272649 
L 306.120258 251.346398 
L 309.448819 251.414765 
L 312.77738 251.478145 
L 316.105941 251.5369 
L 319.434503 251.591369 
L 322.763064 251.641863 
L 326.091625 251.688674 
L 329.420186 251.732069 
L 332.748747 251.772299 
L 336.077309 251.809593 
L 339.40587 251.844166 
L 342.734431 251.876217 
L 346.062992 251.905929 
L 349.391553 251.933474 
L 352.720115 251.959009 
L 356.048676 251.982681 
L 359.377237 252.004626 
L 362.705798 252.02497 
L 366.034359 252.043829 
L 369.362921 252.061313 
L 372.691482 252.077521 
L 376.020043 252.092546 
L 379.348604 252.106475 
L 382.677165 252.119388 
" clip-path="url(#pfce1c6da78)" style="fill: none; stroke-dasharray: 12.8,3.2,2,3.2; stroke-dashoffset: 0; stroke: #ff7f0e; stroke-opacity: 0.85; stroke-width: 2"/>
   </g>
   <g id="line2d_31">
    <path d="M 53.149606 252.283465 
L 56.478168 252.283465 
L 59.806729 252.283465 
L 63.13529 252.283465 
L 66.463851 252.283465 
L 69.792412 252.283465 
L 73.120974 252.283465 
L 76.449535 252.283465 
L 79.778096 252.283465 
L 83.106657 252.283465 
L 86.435218 252.283465 
L 89.76378 252.283465 
L 93.092341 252.283465 
L 96.420902 252.283465 
L 99.749463 169.108468 
L 103.078024 173.999661 
L 106.406586 178.603223 
L 109.735147 182.936068 
L 113.063708 187.014115 
L 116.392269 190.852348 
L 119.72083 194.46487 
L 123.049392 197.864954 
L 126.377953 201.065092 
L 129.706514 204.077043 
L 133.035075 206.911873 
L 136.363636 209.579997 
L 139.692198 212.09122 
L 143.020759 214.454767 
L 146.34932 216.679324 
L 149.677881 218.773063 
L 153.006442 220.743678 
L 156.335004 222.598409 
L 159.663565 224.34407 
L 162.992126 225.987075 
L 166.320687 227.533462 
L 169.649248 228.988913 
L 172.97781 230.358773 
L 176.306371 231.648078 
L 179.634932 232.861564 
L 182.963493 234.003689 
L 186.292054 235.078651 
L 189.620616 236.090398 
L 192.949177 237.042649 
L 196.277738 237.938901 
L 199.606299 238.782448 
L 202.93486 239.57639 
L 206.263422 240.323643 
L 209.591983 241.026953 
L 212.920544 241.688904 
L 216.249105 242.311928 
L 219.577666 242.898315 
L 222.906228 243.450219 
L 226.234789 243.969667 
L 229.56335 244.458569 
L 232.891911 244.91872 
L 236.220472 245.351812 
L 239.549034 245.759435 
L 242.877595 246.143087 
L 246.206156 246.504179 
L 249.534717 246.844036 
L 252.863278 247.163907 
L 256.19184 247.464968 
L 259.520401 247.748325 
L 262.848962 248.015019 
L 266.177523 248.266029 
L 269.506084 248.502279 
L 272.834646 248.724635 
L 276.163207 248.933916 
L 279.491768 249.13089 
L 282.820329 249.31628 
L 286.14889 249.490769 
L 289.477452 249.654996 
L 292.806013 249.809566 
L 296.134574 249.955046 
L 299.463135 250.091971 
L 302.791696 250.220844 
L 306.120258 250.342139 
L 309.448819 250.456301 
L 312.77738 250.563749 
L 316.105941 250.664879 
L 319.434503 250.760061 
L 322.763064 250.849647 
L 326.091625 250.933964 
L 329.420186 251.013323 
L 332.748747 251.088015 
L 336.077309 251.158314 
L 339.40587 251.22448 
L 342.734431 251.286755 
L 346.062992 251.345367 
L 349.391553 251.400533 
L 352.720115 251.452455 
L 356.048676 251.501323 
L 359.377237 251.547318 
L 362.705798 251.590608 
L 366.034359 251.631352 
L 369.362921 251.6697 
L 372.691482 251.705793 
L 376.020043 251.739764 
L 379.348604 251.771737 
L 382.677165 251.801829 
" clip-path="url(#pfce1c6da78)" style="fill: none; stroke-dasharray: 2,3.3; stroke-dashoffset: 0; stroke: #2ca02c; stroke-opacity: 0.85; stroke-width: 2"/>
   </g>
   <g id="patch_3">
    <path d="M 53.149606 252.283465 
L 53.149606 34.015748 
" style="fill: none; stroke: #000000; stroke-width: 0.8; stroke-linejoin: miter; stroke-linecap: square"/>
   </g>
   <g id="patch_4">
    <path d="M 382.677165 252.283465 
L 382.677165 34.015748 
" style="fill: none; stroke: #000000; stroke-width: 0.8; stroke-linejoin: miter; stroke-linecap: square"/>
   </g>
   <g id="patch_5">
    <path d="M 53.149606 252.283465 
L 382.677165 252.283465 
" style="fill: none; stroke: #000000; stroke-width: 0.8; stroke-linejoin: miter; stroke-linecap: square"/>
   </g>
   <g id="patch_6">
    <path d="M 53.149606 34.015748 
L 382.677165 34.015748 
" style="fill: none; stroke: #000000; stroke-width: 0.8; stroke-linejoin: miter; stroke-linecap: square"/>
   </g>
   <g id="text_17">
    <!-- Effect of exponential distribution on process times -->
    <g transform="translate(96.713386 28.015748) scale(0.12 -0.12)">
     <defs>
      <path id="TimesNewRomanPSMT-45" d="M 1338 4006 
L 1338 2331 
L 2269 2331 
Q 2631 2331 2753 2441 
Q 2916 2584 2934 2947 
L 3050 2947 
L 3050 1472 
L 2934 1472 
Q 2891 1781 2847 1869 
Q 2791 1978 2662 2040 
Q 2534 2103 2269 2103 
L 1338 2103 
L 1338 706 
Q 1338 425 1363 364 
Q 1388 303 1450 267 
Q 1513 231 1688 231 
L 2406 231 
Q 2766 231 2928 281 
Q 3091 331 3241 478 
Q 3434 672 3638 1063 
L 3763 1063 
L 3397 0 
L 131 0 
L 131 116 
L 281 116 
Q 431 116 566 188 
Q 666 238 702 338 
Q 738 438 738 747 
L 738 3500 
Q 738 3903 656 3997 
Q 544 4122 281 4122 
L 131 4122 
L 131 4238 
L 3397 4238 
L 3444 3309 
L 3322 3309 
Q 3256 3644 3176 3769 
Q 3097 3894 2941 3959 
Q 2816 4006 2500 4006 
L 1338 4006 
z
" transform="scale(0.015625)"/>
      <path id="TimesNewRomanPSMT-66" d="M 1319 2638 
L 1319 756 
Q 1319 356 1406 250 
Q 1522 113 1716 113 
L 1975 113 
L 1975 0 
L 266 0 
L 266 113 
L 394 113 
Q 519 113 622 175 
Q 725 238 764 344 
Q 803 450 803 756 
L 803 2638 
L 247 2638 
L 247 2863 
L 803 2863 
L 803 3050 
Q 803 3478 940 3775 
Q 1078 4072 1361 4255 
Q 1644 4438 1997 4438 
Q 2325 4438 2600 4225 
Q 2781 4084 2781 3909 
Q 2781 3816 2700 3733 
Q 2619 3650 2525 3650 
Q 2453 3650 2373 3701 
Q 2294 3753 2178 3923 
Q 2063 4094 1966 4153 
Q 1869 4213 1750 4213 
Q 1606 4213 1506 4136 
Q 1406 4059 1362 3898 
Q 1319 3738 1319 3069 
L 1319 2863 
L 2056 2863 
L 2056 2638 
L 1319 2638 
z
" transform="scale(0.015625)"/>
      <path id="TimesNewRomanPSMT-78" d="M 84 2863 
L 1431 2863 
L 1431 2747 
Q 1303 2747 1251 2703 
Q 1200 2659 1200 2588 
Q 1200 2513 1309 2356 
Q 1344 2306 1413 2200 
L 1616 1875 
L 1850 2200 
Q 2075 2509 2075 2591 
Q 2075 2656 2022 2701 
Q 1969 2747 1850 2747 
L 1850 2863 
L 2819 2863 
L 2819 2747 
Q 2666 2738 2553 2663 
Q 2400 2556 2134 2200 
L 1744 1678 
L 2456 653 
Q 2719 275 2831 198 
Q 2944 122 3122 113 
L 3122 0 
L 1772 0 
L 1772 113 
Q 1913 113 1991 175 
Q 2050 219 2050 291 
Q 2050 363 1850 653 
L 1431 1266 
L 972 653 
Q 759 369 759 316 
Q 759 241 829 180 
Q 900 119 1041 113 
L 1041 0 
L 106 0 
L 106 113 
Q 219 128 303 191 
Q 422 281 703 653 
L 1303 1450 
L 759 2238 
Q 528 2575 401 2661 
Q 275 2747 84 2747 
L 84 2863 
z
" transform="scale(0.015625)"/>
      <path id="TimesNewRomanPSMT-70" d="M -6 2578 
L 875 2934 
L 994 2934 
L 994 2266 
Q 1216 2644 1439 2795 
Q 1663 2947 1909 2947 
Q 2341 2947 2628 2609 
Q 2981 2197 2981 1534 
Q 2981 794 2556 309 
Q 2206 -88 1675 -88 
Q 1444 -88 1275 -22 
Q 1150 25 994 166 
L 994 -706 
Q 994 -1000 1030 -1079 
Q 1066 -1159 1155 -1206 
Q 1244 -1253 1478 -1253 
L 1478 -1369 
L -22 -1369 
L -22 -1253 
L 56 -1253 
Q 228 -1256 350 -1188 
Q 409 -1153 442 -1076 
Q 475 -1000 475 -688 
L 475 2019 
Q 475 2297 450 2372 
Q 425 2447 370 2484 
Q 316 2522 222 2522 
Q 147 2522 31 2478 
L -6 2578 
z
M 994 2081 
L 994 1013 
Q 994 666 1022 556 
Q 1066 375 1236 237 
Q 1406 100 1666 100 
Q 1978 100 2172 344 
Q 2425 663 2425 1241 
Q 2425 1897 2138 2250 
Q 1938 2494 1663 2494 
Q 1513 2494 1366 2419 
Q 1253 2363 994 2081 
z
" transform="scale(0.015625)"/>
      <path id="TimesNewRomanPSMT-75" d="M 2709 2863 
L 2709 1128 
Q 2709 631 2732 520 
Q 2756 409 2807 365 
Q 2859 322 2928 322 
Q 3025 322 3147 375 
L 3191 266 
L 2334 -88 
L 2194 -88 
L 2194 519 
Q 1825 119 1631 15 
Q 1438 -88 1222 -88 
Q 981 -88 804 51 
Q 628 191 559 409 
Q 491 628 491 1028 
L 491 2306 
Q 491 2509 447 2587 
Q 403 2666 317 2708 
Q 231 2750 6 2747 
L 6 2863 
L 1009 2863 
L 1009 947 
Q 1009 547 1148 422 
Q 1288 297 1484 297 
Q 1619 297 1789 381 
Q 1959 466 2194 703 
L 2194 2325 
Q 2194 2569 2105 2655 
Q 2016 2741 1734 2747 
L 1734 2863 
L 2709 2863 
z
" transform="scale(0.015625)"/>
     </defs>
     <use xlink:href="#TimesNewRomanPSMT-45"/>
     <use xlink:href="#TimesNewRomanPSMT-66" x="61.083984"/>
     <use xlink:href="#TimesNewRomanPSMT-66" x="92.634766"/>
     <use xlink:href="#TimesNewRomanPSMT-65" x="125.935547"/>
     <use xlink:href="#TimesNewRomanPSMT-63" x="170.320312"/>
     <use xlink:href="#TimesNewRomanPSMT-74" x="214.705078"/>
     <use xlink:href="#TimesNewRomanPSMT-20" x="242.488281"/>
     <use xlink:href="#TimesNewRomanPSMT-6f" x="267.488281"/>
     <use xlink:href="#TimesNewRomanPSMT-66" x="317.488281"/>
     <use xlink:href="#TimesNewRomanPSMT-20" x="350.789062"/>
     <use xlink:href="#TimesNewRomanPSMT-65" x="375.789062"/>
     <use xlink:href="#TimesNewRomanPSMT-78" x="420.173828"/>
     <use xlink:href="#TimesNewRomanPSMT-70" x="470.173828"/>
     <use xlink:href="#TimesNewRomanPSMT-6f" x="520.173828"/>
     <use xlink:href="#TimesNewRomanPSMT-6e" x="570.173828"/>
     <use xlink:href="#TimesNewRomanPSMT-65" x="620.173828"/>
     <use xlink:href="#TimesNewRomanPSMT-6e" x="664.558594"/>
     <use xlink:href="#TimesNewRomanPSMT-74" x="714.558594"/>
     <use xlink:href="#TimesNewRomanPSMT-69" x="742.341797"/>
     <use xlink:href="#TimesNewRomanPSMT-61" x="770.125"/>
     <use xlink:href="#TimesNewRomanPSMT-6c" x="814.509766"/>
     <use xlink:href="#TimesNewRomanPSMT-20" x="842.292969"/>
     <use xlink:href="#TimesNewRomanPSMT-64" x="867.292969"/>
     <use xlink:href="#TimesNewRomanPSMT-69" x="917.292969"/>
     <use xlink:href="#TimesNewRomanPSMT-73" x="945.076172"/>
     <use xlink:href="#TimesNewRomanPSMT-74" x="983.992188"/>
     <use xlink:href="#TimesNewRomanPSMT-72" x="1011.775391"/>
     <use xlink:href="#TimesNewRomanPSMT-69" x="1045.076172"/>
     <use xlink:href="#TimesNewRomanPSMT-62" x="1072.859375"/>
     <use xlink:href="#TimesNewRomanPSMT-75" x="1122.859375"/>
     <use xlink:href="#TimesNewRomanPSMT-74" x="1172.859375"/>
     <use xlink:href="#TimesNewRomanPSMT-69" x="1200.642578"/>
     <use xlink:href="#TimesNewRomanPSMT-6f" x="1228.425781"/>
     <use xlink:href="#TimesNewRomanPSMT-6e" x="1278.425781"/>
     <use xlink:href="#TimesNewRomanPSMT-20" x="1328.425781"/>
     <use xlink:href="#TimesNewRomanPSMT-6f" x="1353.425781"/>
     <use xlink:href="#TimesNewRomanPSMT-6e" x="1403.425781"/>
     <use xlink:href="#TimesNewRomanPSMT-20" x="1453.425781"/>
     <use xlink:href="#TimesNewRomanPSMT-70" x="1478.425781"/>
     <use xlink:href="#TimesNewRomanPSMT-72" x="1528.425781"/>
     <use xlink:href="#TimesNewRomanPSMT-6f" x="1561.726562"/>
     <use xlink:href="#TimesNewRomanPSMT-63" x="1611.726562"/>
     <use xlink:href="#TimesNewRomanPSMT-65" x="1656.111328"/>
     <use xlink:href="#TimesNewRomanPSMT-73" x="1700.496094"/>
     <use xlink:href="#TimesNewRomanPSMT-73" x="1739.412109"/>
     <use xlink:href="#TimesNewRomanPSMT-20" x="1778.328125"/>
     <use xlink:href="#TimesNewRomanPSMT-74" x="1803.328125"/>
     <use xlink:href="#TimesNewRomanPSMT-69" x="1831.111328"/>
     <use xlink:href="#TimesNewRomanPSMT-6d" x="1858.894531"/>
     <use xlink:href="#TimesNewRomanPSMT-65" x="1936.677734"/>
     <use xlink:href="#TimesNewRomanPSMT-73" x="1981.0625"/>
    </g>
   </g>
   <g id="legend_1">
    <g id="patch_7">
     <path d="M 219.16779 84.432936 
L 375.677165 84.432936 
Q 377.677165 84.432936 377.677165 82.432936 
L 377.677165 41.015748 
Q 377.677165 39.015748 375.677165 39.015748 
L 219.16779 39.015748 
Q 217.16779 39.015748 217.16779 41.015748 
L 217.16779 82.432936 
Q 217.16779 84.432936 219.16779 84.432936 
z
" style="fill: #ffffff; opacity: 0.8; stroke: #cccccc; stroke-linejoin: miter"/>
    </g>
    <g id="line2d_32">
     <path d="M 221.16779 46.515748 
L 231.16779 46.515748 
L 241.16779 46.515748 
" style="fill: none; stroke-dasharray: 7.4,3.2; stroke-dashoffset: 0; stroke: #1f77b4; stroke-opacity: 0.85; stroke-width: 2"/>
    </g>
    <g id="text_18">
     <!-- Exponential distribution (pt=2) -->
     <g transform="translate(249.16779 50.015748) scale(0.1 -0.1)">
      <defs>
       <path id="TimesNewRomanPSMT-28" d="M 1988 -1253 
L 1988 -1369 
Q 1516 -1131 1200 -813 
Q 750 -359 506 256 
Q 263 872 263 1534 
Q 263 2503 741 3301 
Q 1219 4100 1988 4444 
L 1988 4313 
Q 1603 4100 1356 3731 
Q 1109 3363 987 2797 
Q 866 2231 866 1616 
Q 866 947 969 400 
Q 1050 -31 1165 -292 
Q 1281 -553 1476 -793 
Q 1672 -1034 1988 -1253 
z
" transform="scale(0.015625)"/>
       <path id="TimesNewRomanPSMT-3d" d="M 116 2759 
L 3488 2759 
L 3488 2503 
L 116 2503 
L 116 2759 
z
M 116 1741 
L 3488 1741 
L 3488 1484 
L 116 1484 
L 116 1741 
z
" transform="scale(0.015625)"/>
       <path id="TimesNewRomanPSMT-29" d="M 144 4313 
L 144 4444 
Q 619 4209 934 3891 
Q 1381 3434 1625 2820 
Q 1869 2206 1869 1541 
Q 1869 572 1392 -226 
Q 916 -1025 144 -1369 
L 144 -1253 
Q 528 -1038 776 -670 
Q 1025 -303 1145 264 
Q 1266 831 1266 1447 
Q 1266 2113 1163 2663 
Q 1084 3094 967 3353 
Q 850 3613 656 3853 
Q 463 4094 144 4313 
z
" transform="scale(0.015625)"/>
      </defs>
      <use xlink:href="#TimesNewRomanPSMT-45"/>
      <use xlink:href="#TimesNewRomanPSMT-78" x="61.083984"/>
      <use xlink:href="#TimesNewRomanPSMT-70" x="111.083984"/>
      <use xlink:href="#TimesNewRomanPSMT-6f" x="161.083984"/>
      <use xlink:href="#TimesNewRomanPSMT-6e" x="211.083984"/>
      <use xlink:href="#TimesNewRomanPSMT-65" x="261.083984"/>
      <use xlink:href="#TimesNewRomanPSMT-6e" x="305.46875"/>
      <use xlink:href="#TimesNewRomanPSMT-74" x="355.46875"/>
      <use xlink:href="#TimesNewRomanPSMT-69" x="383.251953"/>
      <use xlink:href="#TimesNewRomanPSMT-61" x="411.035156"/>
      <use xlink:href="#TimesNewRomanPSMT-6c" x="455.419922"/>
      <use xlink:href="#TimesNewRomanPSMT-20" x="483.203125"/>
      <use xlink:href="#TimesNewRomanPSMT-64" x="508.203125"/>
      <use xlink:href="#TimesNewRomanPSMT-69" x="558.203125"/>
      <use xlink:href="#TimesNewRomanPSMT-73" x="585.986328"/>
      <use xlink:href="#TimesNewRomanPSMT-74" x="624.902344"/>
      <use xlink:href="#TimesNewRomanPSMT-72" x="652.685547"/>
      <use xlink:href="#TimesNewRomanPSMT-69" x="685.986328"/>
      <use xlink:href="#TimesNewRomanPSMT-62" x="713.769531"/>
      <use xlink:href="#TimesNewRomanPSMT-75" x="763.769531"/>
      <use xlink:href="#TimesNewRomanPSMT-74" x="813.769531"/>
      <use xlink:href="#TimesNewRomanPSMT-69" x="841.552734"/>
      <use xlink:href="#TimesNewRomanPSMT-6f" x="869.335938"/>
      <use xlink:href="#TimesNewRomanPSMT-6e" x="919.335938"/>
      <use xlink:href="#TimesNewRomanPSMT-20" x="969.335938"/>
      <use xlink:href="#TimesNewRomanPSMT-28" x="994.335938"/>
      <use xlink:href="#TimesNewRomanPSMT-70" x="1027.636719"/>
      <use xlink:href="#TimesNewRomanPSMT-74" x="1077.636719"/>
      <use xlink:href="#TimesNewRomanPSMT-3d" x="1105.419922"/>
      <use xlink:href="#TimesNewRomanPSMT-32" x="1161.816406"/>
      <use xlink:href="#TimesNewRomanPSMT-29" x="1211.816406"/>
     </g>
    </g>
    <g id="line2d_33">
     <path d="M 221.16779 60.654811 
L 231.16779 60.654811 
L 241.16779 60.654811 
" style="fill: none; stroke-dasharray: 12.8,3.2,2,3.2; stroke-dashoffset: 0; stroke: #ff7f0e; stroke-opacity: 0.85; stroke-width: 2"/>
    </g>
    <g id="text_19">
     <!-- Exponential distribution (pt=2) -->
     <g transform="translate(249.16779 64.154811) scale(0.1 -0.1)">
      <use xlink:href="#TimesNewRomanPSMT-45"/>
      <use xlink:href="#TimesNewRomanPSMT-78" x="61.083984"/>
      <use xlink:href="#TimesNewRomanPSMT-70" x="111.083984"/>
      <use xlink:href="#TimesNewRomanPSMT-6f" x="161.083984"/>
      <use xlink:href="#TimesNewRomanPSMT-6e" x="211.083984"/>
      <use xlink:href="#TimesNewRomanPSMT-65" x="261.083984"/>
      <use xlink:href="#TimesNewRomanPSMT-6e" x="305.46875"/>
      <use xlink:href="#TimesNewRomanPSMT-74" x="355.46875"/>
      <use xlink:href="#TimesNewRomanPSMT-69" x="383.251953"/>
      <use xlink:href="#TimesNewRomanPSMT-61" x="411.035156"/>
      <use xlink:href="#TimesNewRomanPSMT-6c" x="455.419922"/>
      <use xlink:href="#TimesNewRomanPSMT-20" x="483.203125"/>
      <use xlink:href="#TimesNewRomanPSMT-64" x="508.203125"/>
      <use xlink:href="#TimesNewRomanPSMT-69" x="558.203125"/>
      <use xlink:href="#TimesNewRomanPSMT-73" x="585.986328"/>
      <use xlink:href="#TimesNewRomanPSMT-74" x="624.902344"/>
      <use xlink:href="#TimesNewRomanPSMT-72" x="652.685547"/>
      <use xlink:href="#TimesNewRomanPSMT-69" x="685.986328"/>
      <use xlink:href="#TimesNewRomanPSMT-62" x="713.769531"/>
      <use xlink:href="#TimesNewRomanPSMT-75" x="763.769531"/>
      <use xlink:href="#TimesNewRomanPSMT-74" x="813.769531"/>
      <use xlink:href="#TimesNewRomanPSMT-69" x="841.552734"/>
      <use xlink:href="#TimesNewRomanPSMT-6f" x="869.335938"/>
      <use xlink:href="#TimesNewRomanPSMT-6e" x="919.335938"/>
      <use xlink:href="#TimesNewRomanPSMT-20" x="969.335938"/>
      <use xlink:href="#TimesNewRomanPSMT-28" x="994.335938"/>
      <use xlink:href="#TimesNewRomanPSMT-70" x="1027.636719"/>
      <use xlink:href="#TimesNewRomanPSMT-74" x="1077.636719"/>
      <use xlink:href="#TimesNewRomanPSMT-3d" x="1105.419922"/>
      <use xlink:href="#TimesNewRomanPSMT-32" x="1161.816406"/>
      <use xlink:href="#TimesNewRomanPSMT-29" x="1211.816406"/>
     </g>
    </g>
    <g id="line2d_34">
     <path d="M 221.16779 74.793873 
L 231.16779 74.793873 
L 241.16779 74.793873 
" style="fill: none; stroke-dasharray: 2,3.3; stroke-dashoffset: 0; stroke: #2ca02c; stroke-opacity: 0.85; stroke-width: 2"/>
    </g>
    <g id="text_20">
     <!-- Exponential distribution (pt=2) -->
     <g transform="translate(249.16779 78.293873) scale(0.1 -0.1)">
      <use xlink:href="#TimesNewRomanPSMT-45"/>
      <use xlink:href="#TimesNewRomanPSMT-78" x="61.083984"/>
      <use xlink:href="#TimesNewRomanPSMT-70" x="111.083984"/>
      <use xlink:href="#TimesNewRomanPSMT-6f" x="161.083984"/>
      <use xlink:href="#TimesNewRomanPSMT-6e" x="211.083984"/>
      <use xlink:href="#TimesNewRomanPSMT-65" x="261.083984"/>
      <use xlink:href="#TimesNewRomanPSMT-6e" x="305.46875"/>
      <use xlink:href="#TimesNewRomanPSMT-74" x="355.46875"/>
      <use xlink:href="#TimesNewRomanPSMT-69" x="383.251953"/>
      <use xlink:href="#TimesNewRomanPSMT-61" x="411.035156"/>
      <use xlink:href="#TimesNewRomanPSMT-6c" x="455.419922"/>
      <use xlink:href="#TimesNewRomanPSMT-20" x="483.203125"/>
      <use xlink:href="#TimesNewRomanPSMT-64" x="508.203125"/>
      <use xlink:href="#TimesNewRomanPSMT-69" x="558.203125"/>
      <use xlink:href="#TimesNewRomanPSMT-73" x="585.986328"/>
      <use xlink:href="#TimesNewRomanPSMT-74" x="624.902344"/>
      <use xlink:href="#TimesNewRomanPSMT-72" x="652.685547"/>
      <use xlink:href="#TimesNewRomanPSMT-69" x="685.986328"/>
      <use xlink:href="#TimesNewRomanPSMT-62" x="713.769531"/>
      <use xlink:href="#TimesNewRomanPSMT-75" x="763.769531"/>
      <use xlink:href="#TimesNewRomanPSMT-74" x="813.769531"/>
      <use xlink:href="#TimesNewRomanPSMT-69" x="841.552734"/>
      <use xlink:href="#TimesNewRomanPSMT-6f" x="869.335938"/>
      <use xlink:href="#TimesNewRomanPSMT-6e" x="919.335938"/>
      <use xlink:href="#TimesNewRomanPSMT-20" x="969.335938"/>
      <use xlink:href="#TimesNewRomanPSMT-28" x="994.335938"/>
      <use xlink:href="#TimesNewRomanPSMT-70" x="1027.636719"/>
      <use xlink:href="#TimesNewRomanPSMT-74" x="1077.636719"/>
      <use xlink:href="#TimesNewRomanPSMT-3d" x="1105.419922"/>
      <use xlink:href="#TimesNewRomanPSMT-32" x="1161.816406"/>
      <use xlink:href="#TimesNewRomanPSMT-29" x="1211.816406"/>
     </g>
    </g>
   </g>
  </g>
 </g>
 <defs>
  <clipPath id="pfce1c6da78">
   <rect x="53.149606" y="34.015748" width="329.527559" height="218.267717"/>
  </clipPath>
 </defs>
</svg>
