<?xml version="1.0" encoding="utf-8" standalone="no"?>
<!DOCTYPE svg PUBLIC "-//W3C//DTD SVG 1.1//EN"
  "http://www.w3.org/Graphics/SVG/1.1/DTD/svg11.dtd">
<svg xmlns:xlink="http://www.w3.org/1999/xlink" width="708.661417pt" height="212.598425pt" viewBox="0 0 708.661417 212.598425" xmlns="http://www.w3.org/2000/svg" version="1.1">
 <metadata>
  <rdf:RDF xmlns:dc="http://purl.org/dc/elements/1.1/" xmlns:cc="http://creativecommons.org/ns#" xmlns:rdf="http://www.w3.org/1999/02/22-rdf-syntax-ns#">
   <cc:Work>
    <dc:type rdf:resource="http://purl.org/dc/dcmitype/StillImage"/>
    <dc:date>2023-03-07T12:54:06.877592</dc:date>
    <dc:format>image/svg+xml</dc:format>
    <dc:creator>
     <cc:Agent>
      <dc:title>Matplotlib v3.7.0, https://matplotlib.org/</dc:title>
     </cc:Agent>
    </dc:creator>
   </cc:Work>
  </rdf:RDF>
 </metadata>
 <defs>
  <style type="text/css">*{stroke-linejoin: round; stroke-linecap: butt}</style>
 </defs>
 <g id="figure_1">
  <g id="patch_1">
   <path d="M 0 212.598425 
L 708.661417 212.598425 
L 708.661417 0 
L 0 0 
z
" style="fill: #ffffff"/>
  </g>
  <g id="axes_1">
   <g id="patch_2">
    <path d="M 88.582677 189.212598 
L 338.224767 189.212598 
L 338.224767 25.511811 
L 88.582677 25.511811 
z
" style="fill: #ffffff"/>
   </g>
   <g id="matplotlib.axis_1">
    <g id="xtick_1">
     <g id="line2d_1">
      <path d="M 88.582677 189.212598 
L 88.582677 25.511811 
" clip-path="url(#p4316b709e3)" style="fill: none; stroke: #c0c0c0; stroke-width: 0.8; stroke-linecap: square"/>
     </g>
     <g id="line2d_2">
      <defs>
       <path id="m5e459527a5" d="M 0 0 
L 0 3.5 
" style="stroke: #000000; stroke-width: 0.8"/>
      </defs>
      <g>
       <use xlink:href="#m5e459527a5" x="88.582677" y="189.212598" style="stroke: #000000; stroke-width: 0.8"/>
      </g>
     </g>
     <g id="text_1">
      <!-- 0 -->
      <g transform="translate(86.082677 203.156348) scale(0.1 -0.1)">
       <defs>
        <path id="TimesNewRomanPSMT-30" d="M 231 2094 
Q 231 2819 450 3342 
Q 669 3866 1031 4122 
Q 1313 4325 1613 4325 
Q 2100 4325 2488 3828 
Q 2972 3213 2972 2159 
Q 2972 1422 2759 906 
Q 2547 391 2217 158 
Q 1888 -75 1581 -75 
Q 975 -75 572 641 
Q 231 1244 231 2094 
z
M 844 2016 
Q 844 1141 1059 588 
Q 1238 122 1591 122 
Q 1759 122 1940 273 
Q 2122 425 2216 781 
Q 2359 1319 2359 2297 
Q 2359 3022 2209 3506 
Q 2097 3866 1919 4016 
Q 1791 4119 1609 4119 
Q 1397 4119 1231 3928 
Q 1006 3669 925 3112 
Q 844 2556 844 2016 
z
" transform="scale(0.015625)"/>
       </defs>
       <use xlink:href="#TimesNewRomanPSMT-30"/>
      </g>
     </g>
    </g>
    <g id="xtick_2">
     <g id="line2d_3">
      <path d="M 121.868289 189.212598 
L 121.868289 25.511811 
" clip-path="url(#p4316b709e3)" style="fill: none; stroke: #c0c0c0; stroke-width: 0.8; stroke-linecap: square"/>
     </g>
     <g id="line2d_4">
      <g>
       <use xlink:href="#m5e459527a5" x="121.868289" y="189.212598" style="stroke: #000000; stroke-width: 0.8"/>
      </g>
     </g>
     <g id="text_2">
      <!-- 2 -->
      <g transform="translate(119.368289 203.156348) scale(0.1 -0.1)">
       <defs>
        <path id="TimesNewRomanPSMT-32" d="M 2934 816 
L 2638 0 
L 138 0 
L 138 116 
Q 1241 1122 1691 1759 
Q 2141 2397 2141 2925 
Q 2141 3328 1894 3587 
Q 1647 3847 1303 3847 
Q 991 3847 742 3664 
Q 494 3481 375 3128 
L 259 3128 
Q 338 3706 661 4015 
Q 984 4325 1469 4325 
Q 1984 4325 2329 3994 
Q 2675 3663 2675 3213 
Q 2675 2891 2525 2569 
Q 2294 2063 1775 1497 
Q 997 647 803 472 
L 1909 472 
Q 2247 472 2383 497 
Q 2519 522 2628 598 
Q 2738 675 2819 816 
L 2934 816 
z
" transform="scale(0.015625)"/>
       </defs>
       <use xlink:href="#TimesNewRomanPSMT-32"/>
      </g>
     </g>
    </g>
    <g id="xtick_3">
     <g id="line2d_5">
      <path d="M 155.153901 189.212598 
L 155.153901 25.511811 
" clip-path="url(#p4316b709e3)" style="fill: none; stroke: #c0c0c0; stroke-width: 0.8; stroke-linecap: square"/>
     </g>
     <g id="line2d_6">
      <g>
       <use xlink:href="#m5e459527a5" x="155.153901" y="189.212598" style="stroke: #000000; stroke-width: 0.8"/>
      </g>
     </g>
     <g id="text_3">
      <!-- 4 -->
      <g transform="translate(152.653901 203.156348) scale(0.1 -0.1)">
       <defs>
        <path id="TimesNewRomanPSMT-34" d="M 2978 1563 
L 2978 1119 
L 2409 1119 
L 2409 0 
L 1894 0 
L 1894 1119 
L 100 1119 
L 100 1519 
L 2066 4325 
L 2409 4325 
L 2409 1563 
L 2978 1563 
z
M 1894 1563 
L 1894 3666 
L 406 1563 
L 1894 1563 
z
" transform="scale(0.015625)"/>
       </defs>
       <use xlink:href="#TimesNewRomanPSMT-34"/>
      </g>
     </g>
    </g>
    <g id="xtick_4">
     <g id="line2d_7">
      <path d="M 188.439513 189.212598 
L 188.439513 25.511811 
" clip-path="url(#p4316b709e3)" style="fill: none; stroke: #c0c0c0; stroke-width: 0.8; stroke-linecap: square"/>
     </g>
     <g id="line2d_8">
      <g>
       <use xlink:href="#m5e459527a5" x="188.439513" y="189.212598" style="stroke: #000000; stroke-width: 0.8"/>
      </g>
     </g>
     <g id="text_4">
      <!-- 6 -->
      <g transform="translate(185.939513 203.156348) scale(0.1 -0.1)">
       <defs>
        <path id="TimesNewRomanPSMT-36" d="M 2869 4325 
L 2869 4209 
Q 2456 4169 2195 4045 
Q 1934 3922 1679 3669 
Q 1425 3416 1258 3105 
Q 1091 2794 978 2366 
Q 1428 2675 1881 2675 
Q 2316 2675 2634 2325 
Q 2953 1975 2953 1425 
Q 2953 894 2631 456 
Q 2244 -75 1606 -75 
Q 1172 -75 869 213 
Q 275 772 275 1663 
Q 275 2231 503 2743 
Q 731 3256 1154 3653 
Q 1578 4050 1965 4187 
Q 2353 4325 2688 4325 
L 2869 4325 
z
M 925 2138 
Q 869 1716 869 1456 
Q 869 1156 980 804 
Q 1091 453 1309 247 
Q 1469 100 1697 100 
Q 1969 100 2183 356 
Q 2397 613 2397 1088 
Q 2397 1622 2184 2012 
Q 1972 2403 1581 2403 
Q 1463 2403 1327 2353 
Q 1191 2303 925 2138 
z
" transform="scale(0.015625)"/>
       </defs>
       <use xlink:href="#TimesNewRomanPSMT-36"/>
      </g>
     </g>
    </g>
    <g id="xtick_5">
     <g id="line2d_9">
      <path d="M 221.725125 189.212598 
L 221.725125 25.511811 
" clip-path="url(#p4316b709e3)" style="fill: none; stroke: #c0c0c0; stroke-width: 0.8; stroke-linecap: square"/>
     </g>
     <g id="line2d_10">
      <g>
       <use xlink:href="#m5e459527a5" x="221.725125" y="189.212598" style="stroke: #000000; stroke-width: 0.8"/>
      </g>
     </g>
     <g id="text_5">
      <!-- 8 -->
      <g transform="translate(219.225125 203.156348) scale(0.1 -0.1)">
       <defs>
        <path id="TimesNewRomanPSMT-38" d="M 1228 2134 
Q 725 2547 579 2797 
Q 434 3047 434 3316 
Q 434 3728 753 4026 
Q 1072 4325 1600 4325 
Q 2113 4325 2425 4047 
Q 2738 3769 2738 3413 
Q 2738 3175 2569 2928 
Q 2400 2681 1866 2347 
Q 2416 1922 2594 1678 
Q 2831 1359 2831 1006 
Q 2831 559 2490 242 
Q 2150 -75 1597 -75 
Q 994 -75 656 303 
Q 388 606 388 966 
Q 388 1247 577 1523 
Q 766 1800 1228 2134 
z
M 1719 2469 
Q 2094 2806 2194 3001 
Q 2294 3197 2294 3444 
Q 2294 3772 2109 3958 
Q 1925 4144 1606 4144 
Q 1288 4144 1088 3959 
Q 888 3775 888 3528 
Q 888 3366 970 3203 
Q 1053 3041 1206 2894 
L 1719 2469 
z
M 1375 2016 
Q 1116 1797 991 1539 
Q 866 1281 866 981 
Q 866 578 1086 336 
Q 1306 94 1647 94 
Q 1984 94 2187 284 
Q 2391 475 2391 747 
Q 2391 972 2272 1150 
Q 2050 1481 1375 2016 
z
" transform="scale(0.015625)"/>
       </defs>
       <use xlink:href="#TimesNewRomanPSMT-38"/>
      </g>
     </g>
    </g>
    <g id="xtick_6">
     <g id="line2d_11">
      <path d="M 255.010737 189.212598 
L 255.010737 25.511811 
" clip-path="url(#p4316b709e3)" style="fill: none; stroke: #c0c0c0; stroke-width: 0.8; stroke-linecap: square"/>
     </g>
     <g id="line2d_12">
      <g>
       <use xlink:href="#m5e459527a5" x="255.010737" y="189.212598" style="stroke: #000000; stroke-width: 0.8"/>
      </g>
     </g>
     <g id="text_6">
      <!-- 10 -->
      <g transform="translate(250.010737 203.156348) scale(0.1 -0.1)">
       <defs>
        <path id="TimesNewRomanPSMT-31" d="M 750 3822 
L 1781 4325 
L 1884 4325 
L 1884 747 
Q 1884 391 1914 303 
Q 1944 216 2037 169 
Q 2131 122 2419 116 
L 2419 0 
L 825 0 
L 825 116 
Q 1125 122 1212 167 
Q 1300 213 1334 289 
Q 1369 366 1369 747 
L 1369 3034 
Q 1369 3497 1338 3628 
Q 1316 3728 1258 3775 
Q 1200 3822 1119 3822 
Q 1003 3822 797 3725 
L 750 3822 
z
" transform="scale(0.015625)"/>
       </defs>
       <use xlink:href="#TimesNewRomanPSMT-31"/>
       <use xlink:href="#TimesNewRomanPSMT-30" x="50"/>
      </g>
     </g>
    </g>
    <g id="xtick_7">
     <g id="line2d_13">
      <path d="M 288.296349 189.212598 
L 288.296349 25.511811 
" clip-path="url(#p4316b709e3)" style="fill: none; stroke: #c0c0c0; stroke-width: 0.8; stroke-linecap: square"/>
     </g>
     <g id="line2d_14">
      <g>
       <use xlink:href="#m5e459527a5" x="288.296349" y="189.212598" style="stroke: #000000; stroke-width: 0.8"/>
      </g>
     </g>
     <g id="text_7">
      <!-- 12 -->
      <g transform="translate(283.296349 203.156348) scale(0.1 -0.1)">
       <use xlink:href="#TimesNewRomanPSMT-31"/>
       <use xlink:href="#TimesNewRomanPSMT-32" x="50"/>
      </g>
     </g>
    </g>
    <g id="xtick_8">
     <g id="line2d_15">
      <path d="M 321.581961 189.212598 
L 321.581961 25.511811 
" clip-path="url(#p4316b709e3)" style="fill: none; stroke: #c0c0c0; stroke-width: 0.8; stroke-linecap: square"/>
     </g>
     <g id="line2d_16">
      <g>
       <use xlink:href="#m5e459527a5" x="321.581961" y="189.212598" style="stroke: #000000; stroke-width: 0.8"/>
      </g>
     </g>
     <g id="text_8">
      <!-- 14 -->
      <g transform="translate(316.581961 203.156348) scale(0.1 -0.1)">
       <use xlink:href="#TimesNewRomanPSMT-31"/>
       <use xlink:href="#TimesNewRomanPSMT-34" x="50"/>
      </g>
     </g>
    </g>
    <g id="text_9">
     <!-- Process time -->
     <g transform="translate(182.907785 217.627911) scale(0.12 -0.12)">
      <defs>
       <path id="TimesNewRomanPSMT-50" d="M 1313 1984 
L 1313 750 
Q 1313 350 1400 253 
Q 1519 116 1759 116 
L 1922 116 
L 1922 0 
L 106 0 
L 106 116 
L 266 116 
Q 534 116 650 291 
Q 713 388 713 750 
L 713 3488 
Q 713 3888 628 3984 
Q 506 4122 266 4122 
L 106 4122 
L 106 4238 
L 1659 4238 
Q 2228 4238 2556 4120 
Q 2884 4003 3109 3725 
Q 3334 3447 3334 3066 
Q 3334 2547 2992 2222 
Q 2650 1897 2025 1897 
Q 1872 1897 1694 1919 
Q 1516 1941 1313 1984 
z
M 1313 2163 
Q 1478 2131 1606 2115 
Q 1734 2100 1825 2100 
Q 2150 2100 2386 2351 
Q 2622 2603 2622 3003 
Q 2622 3278 2509 3514 
Q 2397 3750 2190 3867 
Q 1984 3984 1722 3984 
Q 1563 3984 1313 3925 
L 1313 2163 
z
" transform="scale(0.015625)"/>
       <path id="TimesNewRomanPSMT-72" d="M 1038 2947 
L 1038 2303 
Q 1397 2947 1775 2947 
Q 1947 2947 2059 2842 
Q 2172 2738 2172 2600 
Q 2172 2478 2090 2393 
Q 2009 2309 1897 2309 
Q 1788 2309 1652 2417 
Q 1516 2525 1450 2525 
Q 1394 2525 1328 2463 
Q 1188 2334 1038 2041 
L 1038 669 
Q 1038 431 1097 309 
Q 1138 225 1241 169 
Q 1344 113 1538 113 
L 1538 0 
L 72 0 
L 72 113 
Q 291 113 397 181 
Q 475 231 506 341 
Q 522 394 522 644 
L 522 1753 
Q 522 2253 501 2348 
Q 481 2444 426 2487 
Q 372 2531 291 2531 
Q 194 2531 72 2484 
L 41 2597 
L 906 2947 
L 1038 2947 
z
" transform="scale(0.015625)"/>
       <path id="TimesNewRomanPSMT-6f" d="M 1600 2947 
Q 2250 2947 2644 2453 
Q 2978 2031 2978 1484 
Q 2978 1100 2793 706 
Q 2609 313 2286 112 
Q 1963 -88 1566 -88 
Q 919 -88 538 428 
Q 216 863 216 1403 
Q 216 1797 411 2186 
Q 606 2575 925 2761 
Q 1244 2947 1600 2947 
z
M 1503 2744 
Q 1338 2744 1170 2645 
Q 1003 2547 900 2300 
Q 797 2053 797 1666 
Q 797 1041 1045 587 
Q 1294 134 1700 134 
Q 2003 134 2200 384 
Q 2397 634 2397 1244 
Q 2397 2006 2069 2444 
Q 1847 2744 1503 2744 
z
" transform="scale(0.015625)"/>
       <path id="TimesNewRomanPSMT-63" d="M 2631 1088 
Q 2516 522 2178 217 
Q 1841 -88 1431 -88 
Q 944 -88 581 321 
Q 219 731 219 1428 
Q 219 2103 620 2525 
Q 1022 2947 1584 2947 
Q 2006 2947 2278 2723 
Q 2550 2500 2550 2259 
Q 2550 2141 2473 2067 
Q 2397 1994 2259 1994 
Q 2075 1994 1981 2113 
Q 1928 2178 1911 2362 
Q 1894 2547 1784 2644 
Q 1675 2738 1481 2738 
Q 1169 2738 978 2506 
Q 725 2200 725 1697 
Q 725 1184 976 792 
Q 1228 400 1656 400 
Q 1963 400 2206 609 
Q 2378 753 2541 1131 
L 2631 1088 
z
" transform="scale(0.015625)"/>
       <path id="TimesNewRomanPSMT-65" d="M 681 1784 
Q 678 1147 991 784 
Q 1303 422 1725 422 
Q 2006 422 2214 576 
Q 2422 731 2563 1106 
L 2659 1044 
Q 2594 616 2278 264 
Q 1963 -88 1488 -88 
Q 972 -88 605 314 
Q 238 716 238 1394 
Q 238 2128 614 2539 
Q 991 2950 1559 2950 
Q 2041 2950 2350 2633 
Q 2659 2316 2659 1784 
L 681 1784 
z
M 681 1966 
L 2006 1966 
Q 1991 2241 1941 2353 
Q 1863 2528 1708 2628 
Q 1553 2728 1384 2728 
Q 1125 2728 920 2526 
Q 716 2325 681 1966 
z
" transform="scale(0.015625)"/>
       <path id="TimesNewRomanPSMT-73" d="M 2050 2947 
L 2050 1972 
L 1947 1972 
Q 1828 2431 1642 2597 
Q 1456 2763 1169 2763 
Q 950 2763 815 2647 
Q 681 2531 681 2391 
Q 681 2216 781 2091 
Q 878 1963 1175 1819 
L 1631 1597 
Q 2266 1288 2266 781 
Q 2266 391 1970 151 
Q 1675 -88 1309 -88 
Q 1047 -88 709 6 
Q 606 38 541 38 
Q 469 38 428 -44 
L 325 -44 
L 325 978 
L 428 978 
Q 516 541 762 319 
Q 1009 97 1316 97 
Q 1531 97 1667 223 
Q 1803 350 1803 528 
Q 1803 744 1651 891 
Q 1500 1038 1047 1263 
Q 594 1488 453 1669 
Q 313 1847 313 2119 
Q 313 2472 555 2709 
Q 797 2947 1181 2947 
Q 1350 2947 1591 2875 
Q 1750 2828 1803 2828 
Q 1853 2828 1881 2850 
Q 1909 2872 1947 2947 
L 2050 2947 
z
" transform="scale(0.015625)"/>
       <path id="TimesNewRomanPSMT-20" transform="scale(0.015625)"/>
       <path id="TimesNewRomanPSMT-74" d="M 1031 3803 
L 1031 2863 
L 1700 2863 
L 1700 2644 
L 1031 2644 
L 1031 788 
Q 1031 509 1111 412 
Q 1191 316 1316 316 
Q 1419 316 1516 380 
Q 1613 444 1666 569 
L 1788 569 
Q 1678 263 1478 108 
Q 1278 -47 1066 -47 
Q 922 -47 784 33 
Q 647 113 581 261 
Q 516 409 516 719 
L 516 2644 
L 63 2644 
L 63 2747 
Q 234 2816 414 2980 
Q 594 3144 734 3369 
Q 806 3488 934 3803 
L 1031 3803 
z
" transform="scale(0.015625)"/>
       <path id="TimesNewRomanPSMT-69" d="M 928 4444 
Q 1059 4444 1151 4351 
Q 1244 4259 1244 4128 
Q 1244 3997 1151 3903 
Q 1059 3809 928 3809 
Q 797 3809 703 3903 
Q 609 3997 609 4128 
Q 609 4259 701 4351 
Q 794 4444 928 4444 
z
M 1188 2947 
L 1188 647 
Q 1188 378 1227 289 
Q 1266 200 1342 156 
Q 1419 113 1622 113 
L 1622 0 
L 231 0 
L 231 113 
Q 441 113 512 153 
Q 584 194 626 287 
Q 669 381 669 647 
L 669 1750 
Q 669 2216 641 2353 
Q 619 2453 572 2492 
Q 525 2531 444 2531 
Q 356 2531 231 2484 
L 188 2597 
L 1050 2947 
L 1188 2947 
z
" transform="scale(0.015625)"/>
       <path id="TimesNewRomanPSMT-6d" d="M 1050 2338 
Q 1363 2650 1419 2697 
Q 1559 2816 1721 2881 
Q 1884 2947 2044 2947 
Q 2313 2947 2506 2790 
Q 2700 2634 2766 2338 
Q 3088 2713 3309 2830 
Q 3531 2947 3766 2947 
Q 3994 2947 4170 2830 
Q 4347 2713 4450 2447 
Q 4519 2266 4519 1878 
L 4519 647 
Q 4519 378 4559 278 
Q 4591 209 4675 161 
Q 4759 113 4950 113 
L 4950 0 
L 3538 0 
L 3538 113 
L 3597 113 
Q 3781 113 3884 184 
Q 3956 234 3988 344 
Q 4000 397 4000 647 
L 4000 1878 
Q 4000 2228 3916 2372 
Q 3794 2572 3525 2572 
Q 3359 2572 3192 2489 
Q 3025 2406 2788 2181 
L 2781 2147 
L 2788 2013 
L 2788 647 
Q 2788 353 2820 281 
Q 2853 209 2943 161 
Q 3034 113 3253 113 
L 3253 0 
L 1806 0 
L 1806 113 
Q 2044 113 2133 169 
Q 2222 225 2256 338 
Q 2272 391 2272 647 
L 2272 1878 
Q 2272 2228 2169 2381 
Q 2031 2581 1784 2581 
Q 1616 2581 1450 2491 
Q 1191 2353 1050 2181 
L 1050 647 
Q 1050 366 1089 281 
Q 1128 197 1204 155 
Q 1281 113 1516 113 
L 1516 0 
L 100 0 
L 100 113 
Q 297 113 375 155 
Q 453 197 493 289 
Q 534 381 534 647 
L 534 1741 
Q 534 2213 506 2350 
Q 484 2453 437 2492 
Q 391 2531 309 2531 
Q 222 2531 100 2484 
L 53 2597 
L 916 2947 
L 1050 2947 
L 1050 2338 
z
" transform="scale(0.015625)"/>
      </defs>
      <use xlink:href="#TimesNewRomanPSMT-50"/>
      <use xlink:href="#TimesNewRomanPSMT-72" x="55.615234"/>
      <use xlink:href="#TimesNewRomanPSMT-6f" x="88.916016"/>
      <use xlink:href="#TimesNewRomanPSMT-63" x="138.916016"/>
      <use xlink:href="#TimesNewRomanPSMT-65" x="183.300781"/>
      <use xlink:href="#TimesNewRomanPSMT-73" x="227.685547"/>
      <use xlink:href="#TimesNewRomanPSMT-73" x="266.601562"/>
      <use xlink:href="#TimesNewRomanPSMT-20" x="305.517578"/>
      <use xlink:href="#TimesNewRomanPSMT-74" x="330.517578"/>
      <use xlink:href="#TimesNewRomanPSMT-69" x="358.300781"/>
      <use xlink:href="#TimesNewRomanPSMT-6d" x="386.083984"/>
      <use xlink:href="#TimesNewRomanPSMT-65" x="463.867188"/>
     </g>
    </g>
   </g>
   <g id="matplotlib.axis_2">
    <g id="ytick_1">
     <g id="line2d_17">
      <path d="M 88.582677 189.212598 
L 338.224767 189.212598 
" clip-path="url(#p4316b709e3)" style="fill: none; stroke: #c0c0c0; stroke-width: 0.8; stroke-linecap: square"/>
     </g>
     <g id="line2d_18">
      <defs>
       <path id="m3c36437a5f" d="M 0 0 
L -3.5 0 
" style="stroke: #000000; stroke-width: 0.8"/>
      </defs>
      <g>
       <use xlink:href="#m3c36437a5f" x="88.582677" y="189.212598" style="stroke: #000000; stroke-width: 0.8"/>
      </g>
     </g>
     <g id="text_10">
      <!-- 0.0 -->
      <g transform="translate(69.082677 192.684473) scale(0.1 -0.1)">
       <defs>
        <path id="TimesNewRomanPSMT-2e" d="M 800 606 
Q 947 606 1047 504 
Q 1147 403 1147 259 
Q 1147 116 1045 14 
Q 944 -88 800 -88 
Q 656 -88 554 14 
Q 453 116 453 259 
Q 453 406 554 506 
Q 656 606 800 606 
z
" transform="scale(0.015625)"/>
       </defs>
       <use xlink:href="#TimesNewRomanPSMT-30"/>
       <use xlink:href="#TimesNewRomanPSMT-2e" x="50"/>
       <use xlink:href="#TimesNewRomanPSMT-30" x="75"/>
      </g>
     </g>
    </g>
    <g id="ytick_2">
     <g id="line2d_19">
      <path d="M 88.582677 164.027862 
L 338.224767 164.027862 
" clip-path="url(#p4316b709e3)" style="fill: none; stroke: #c0c0c0; stroke-width: 0.8; stroke-linecap: square"/>
     </g>
     <g id="line2d_20">
      <g>
       <use xlink:href="#m3c36437a5f" x="88.582677" y="164.027862" style="stroke: #000000; stroke-width: 0.8"/>
      </g>
     </g>
     <g id="text_11">
      <!-- 0.1 -->
      <g transform="translate(69.082677 167.499737) scale(0.1 -0.1)">
       <use xlink:href="#TimesNewRomanPSMT-30"/>
       <use xlink:href="#TimesNewRomanPSMT-2e" x="50"/>
       <use xlink:href="#TimesNewRomanPSMT-31" x="75"/>
      </g>
     </g>
    </g>
    <g id="ytick_3">
     <g id="line2d_21">
      <path d="M 88.582677 138.843125 
L 338.224767 138.843125 
" clip-path="url(#p4316b709e3)" style="fill: none; stroke: #c0c0c0; stroke-width: 0.8; stroke-linecap: square"/>
     </g>
     <g id="line2d_22">
      <g>
       <use xlink:href="#m3c36437a5f" x="88.582677" y="138.843125" style="stroke: #000000; stroke-width: 0.8"/>
      </g>
     </g>
     <g id="text_12">
      <!-- 0.2 -->
      <g transform="translate(69.082677 142.315) scale(0.1 -0.1)">
       <use xlink:href="#TimesNewRomanPSMT-30"/>
       <use xlink:href="#TimesNewRomanPSMT-2e" x="50"/>
       <use xlink:href="#TimesNewRomanPSMT-32" x="75"/>
      </g>
     </g>
    </g>
    <g id="ytick_4">
     <g id="line2d_23">
      <path d="M 88.582677 113.658389 
L 338.224767 113.658389 
" clip-path="url(#p4316b709e3)" style="fill: none; stroke: #c0c0c0; stroke-width: 0.8; stroke-linecap: square"/>
     </g>
     <g id="line2d_24">
      <g>
       <use xlink:href="#m3c36437a5f" x="88.582677" y="113.658389" style="stroke: #000000; stroke-width: 0.8"/>
      </g>
     </g>
     <g id="text_13">
      <!-- 0.3 -->
      <g transform="translate(69.082677 117.130264) scale(0.1 -0.1)">
       <defs>
        <path id="TimesNewRomanPSMT-33" d="M 325 3431 
Q 506 3859 782 4092 
Q 1059 4325 1472 4325 
Q 1981 4325 2253 3994 
Q 2459 3747 2459 3466 
Q 2459 3003 1878 2509 
Q 2269 2356 2469 2072 
Q 2669 1788 2669 1403 
Q 2669 853 2319 450 
Q 1863 -75 997 -75 
Q 569 -75 414 31 
Q 259 138 259 259 
Q 259 350 332 419 
Q 406 488 509 488 
Q 588 488 669 463 
Q 722 447 909 348 
Q 1097 250 1169 231 
Q 1284 197 1416 197 
Q 1734 197 1970 444 
Q 2206 691 2206 1028 
Q 2206 1275 2097 1509 
Q 2016 1684 1919 1775 
Q 1784 1900 1550 2001 
Q 1316 2103 1072 2103 
L 972 2103 
L 972 2197 
Q 1219 2228 1467 2375 
Q 1716 2522 1828 2728 
Q 1941 2934 1941 3181 
Q 1941 3503 1739 3701 
Q 1538 3900 1238 3900 
Q 753 3900 428 3381 
L 325 3431 
z
" transform="scale(0.015625)"/>
       </defs>
       <use xlink:href="#TimesNewRomanPSMT-30"/>
       <use xlink:href="#TimesNewRomanPSMT-2e" x="50"/>
       <use xlink:href="#TimesNewRomanPSMT-33" x="75"/>
      </g>
     </g>
    </g>
    <g id="ytick_5">
     <g id="line2d_25">
      <path d="M 88.582677 88.473652 
L 338.224767 88.473652 
" clip-path="url(#p4316b709e3)" style="fill: none; stroke: #c0c0c0; stroke-width: 0.8; stroke-linecap: square"/>
     </g>
     <g id="line2d_26">
      <g>
       <use xlink:href="#m3c36437a5f" x="88.582677" y="88.473652" style="stroke: #000000; stroke-width: 0.8"/>
      </g>
     </g>
     <g id="text_14">
      <!-- 0.4 -->
      <g transform="translate(69.082677 91.945527) scale(0.1 -0.1)">
       <use xlink:href="#TimesNewRomanPSMT-30"/>
       <use xlink:href="#TimesNewRomanPSMT-2e" x="50"/>
       <use xlink:href="#TimesNewRomanPSMT-34" x="75"/>
      </g>
     </g>
    </g>
    <g id="ytick_6">
     <g id="line2d_27">
      <path d="M 88.582677 63.288916 
L 338.224767 63.288916 
" clip-path="url(#p4316b709e3)" style="fill: none; stroke: #c0c0c0; stroke-width: 0.8; stroke-linecap: square"/>
     </g>
     <g id="line2d_28">
      <g>
       <use xlink:href="#m3c36437a5f" x="88.582677" y="63.288916" style="stroke: #000000; stroke-width: 0.8"/>
      </g>
     </g>
     <g id="text_15">
      <!-- 0.5 -->
      <g transform="translate(69.082677 66.760791) scale(0.1 -0.1)">
       <defs>
        <path id="TimesNewRomanPSMT-35" d="M 2778 4238 
L 2534 3706 
L 1259 3706 
L 981 3138 
Q 1809 3016 2294 2522 
Q 2709 2097 2709 1522 
Q 2709 1188 2573 903 
Q 2438 619 2231 419 
Q 2025 219 1772 97 
Q 1413 -75 1034 -75 
Q 653 -75 479 54 
Q 306 184 306 341 
Q 306 428 378 495 
Q 450 563 559 563 
Q 641 563 702 538 
Q 763 513 909 409 
Q 1144 247 1384 247 
Q 1750 247 2026 523 
Q 2303 800 2303 1197 
Q 2303 1581 2056 1914 
Q 1809 2247 1375 2428 
Q 1034 2569 447 2591 
L 1259 4238 
L 2778 4238 
z
" transform="scale(0.015625)"/>
       </defs>
       <use xlink:href="#TimesNewRomanPSMT-30"/>
       <use xlink:href="#TimesNewRomanPSMT-2e" x="50"/>
       <use xlink:href="#TimesNewRomanPSMT-35" x="75"/>
      </g>
     </g>
    </g>
    <g id="ytick_7">
     <g id="line2d_29">
      <path d="M 88.582677 38.104179 
L 338.224767 38.104179 
" clip-path="url(#p4316b709e3)" style="fill: none; stroke: #c0c0c0; stroke-width: 0.8; stroke-linecap: square"/>
     </g>
     <g id="line2d_30">
      <g>
       <use xlink:href="#m3c36437a5f" x="88.582677" y="38.104179" style="stroke: #000000; stroke-width: 0.8"/>
      </g>
     </g>
     <g id="text_16">
      <!-- 0.6 -->
      <g transform="translate(69.082677 41.576054) scale(0.1 -0.1)">
       <use xlink:href="#TimesNewRomanPSMT-30"/>
       <use xlink:href="#TimesNewRomanPSMT-2e" x="50"/>
       <use xlink:href="#TimesNewRomanPSMT-36" x="75"/>
      </g>
     </g>
    </g>
    <g id="text_17">
     <!-- Probability density -->
     <g transform="translate(62.493302 152.860017) rotate(-90) scale(0.12 -0.12)">
      <defs>
       <path id="TimesNewRomanPSMT-62" d="M 984 2369 
Q 1400 2947 1881 2947 
Q 2322 2947 2650 2570 
Q 2978 2194 2978 1541 
Q 2978 778 2472 313 
Q 2038 -88 1503 -88 
Q 1253 -88 995 3 
Q 738 94 469 275 
L 469 3241 
Q 469 3728 445 3840 
Q 422 3953 372 3993 
Q 322 4034 247 4034 
Q 159 4034 28 3984 
L -16 4094 
L 844 4444 
L 984 4444 
L 984 2369 
z
M 984 2169 
L 984 456 
Q 1144 300 1314 220 
Q 1484 141 1663 141 
Q 1947 141 2192 453 
Q 2438 766 2438 1363 
Q 2438 1913 2192 2208 
Q 1947 2503 1634 2503 
Q 1469 2503 1303 2419 
Q 1178 2356 984 2169 
z
" transform="scale(0.015625)"/>
       <path id="TimesNewRomanPSMT-61" d="M 1822 413 
Q 1381 72 1269 19 
Q 1100 -59 909 -59 
Q 613 -59 420 144 
Q 228 347 228 678 
Q 228 888 322 1041 
Q 450 1253 767 1440 
Q 1084 1628 1822 1897 
L 1822 2009 
Q 1822 2438 1686 2597 
Q 1550 2756 1291 2756 
Q 1094 2756 978 2650 
Q 859 2544 859 2406 
L 866 2225 
Q 866 2081 792 2003 
Q 719 1925 600 1925 
Q 484 1925 411 2006 
Q 338 2088 338 2228 
Q 338 2497 613 2722 
Q 888 2947 1384 2947 
Q 1766 2947 2009 2819 
Q 2194 2722 2281 2516 
Q 2338 2381 2338 1966 
L 2338 994 
Q 2338 584 2353 492 
Q 2369 400 2405 369 
Q 2441 338 2488 338 
Q 2538 338 2575 359 
Q 2641 400 2828 588 
L 2828 413 
Q 2478 -56 2159 -56 
Q 2006 -56 1915 50 
Q 1825 156 1822 413 
z
M 1822 616 
L 1822 1706 
Q 1350 1519 1213 1441 
Q 966 1303 859 1153 
Q 753 1003 753 825 
Q 753 600 887 451 
Q 1022 303 1197 303 
Q 1434 303 1822 616 
z
" transform="scale(0.015625)"/>
       <path id="TimesNewRomanPSMT-6c" d="M 1184 4444 
L 1184 647 
Q 1184 378 1223 290 
Q 1263 203 1344 158 
Q 1425 113 1647 113 
L 1647 0 
L 244 0 
L 244 113 
Q 441 113 512 153 
Q 584 194 625 287 
Q 666 381 666 647 
L 666 3247 
Q 666 3731 644 3842 
Q 622 3953 573 3993 
Q 525 4034 450 4034 
Q 369 4034 244 3984 
L 191 4094 
L 1044 4444 
L 1184 4444 
z
" transform="scale(0.015625)"/>
       <path id="TimesNewRomanPSMT-79" d="M 38 2863 
L 1372 2863 
L 1372 2747 
L 1306 2747 
Q 1166 2747 1095 2686 
Q 1025 2625 1025 2534 
Q 1025 2413 1128 2197 
L 1825 753 
L 2466 2334 
Q 2519 2463 2519 2588 
Q 2519 2644 2497 2672 
Q 2472 2706 2419 2726 
Q 2366 2747 2231 2747 
L 2231 2863 
L 3163 2863 
L 3163 2747 
Q 3047 2734 2984 2696 
Q 2922 2659 2847 2556 
Q 2819 2513 2741 2316 
L 1575 -541 
Q 1406 -956 1132 -1168 
Q 859 -1381 606 -1381 
Q 422 -1381 303 -1275 
Q 184 -1169 184 -1031 
Q 184 -900 270 -820 
Q 356 -741 506 -741 
Q 609 -741 788 -809 
Q 913 -856 944 -856 
Q 1038 -856 1148 -759 
Q 1259 -663 1372 -384 
L 1575 113 
L 547 2272 
Q 500 2369 397 2513 
Q 319 2622 269 2659 
Q 197 2709 38 2747 
L 38 2863 
z
" transform="scale(0.015625)"/>
       <path id="TimesNewRomanPSMT-64" d="M 2222 322 
Q 2013 103 1813 7 
Q 1613 -88 1381 -88 
Q 913 -88 563 304 
Q 213 697 213 1313 
Q 213 1928 600 2439 
Q 988 2950 1597 2950 
Q 1975 2950 2222 2709 
L 2222 3238 
Q 2222 3728 2198 3840 
Q 2175 3953 2125 3993 
Q 2075 4034 2000 4034 
Q 1919 4034 1784 3984 
L 1744 4094 
L 2597 4444 
L 2738 4444 
L 2738 1134 
Q 2738 631 2761 520 
Q 2784 409 2836 365 
Q 2888 322 2956 322 
Q 3041 322 3181 375 
L 3216 266 
L 2366 -88 
L 2222 -88 
L 2222 322 
z
M 2222 541 
L 2222 2016 
Q 2203 2228 2109 2403 
Q 2016 2578 1861 2667 
Q 1706 2756 1559 2756 
Q 1284 2756 1069 2509 
Q 784 2184 784 1559 
Q 784 928 1059 592 
Q 1334 256 1672 256 
Q 1956 256 2222 541 
z
" transform="scale(0.015625)"/>
       <path id="TimesNewRomanPSMT-6e" d="M 1034 2341 
Q 1538 2947 1994 2947 
Q 2228 2947 2397 2830 
Q 2566 2713 2666 2444 
Q 2734 2256 2734 1869 
L 2734 647 
Q 2734 375 2778 278 
Q 2813 200 2889 156 
Q 2966 113 3172 113 
L 3172 0 
L 1756 0 
L 1756 113 
L 1816 113 
Q 2016 113 2095 173 
Q 2175 234 2206 353 
Q 2219 400 2219 647 
L 2219 1819 
Q 2219 2209 2117 2386 
Q 2016 2563 1775 2563 
Q 1403 2563 1034 2156 
L 1034 647 
Q 1034 356 1069 288 
Q 1113 197 1189 155 
Q 1266 113 1500 113 
L 1500 0 
L 84 0 
L 84 113 
L 147 113 
Q 366 113 442 223 
Q 519 334 519 647 
L 519 1709 
Q 519 2225 495 2337 
Q 472 2450 423 2490 
Q 375 2531 294 2531 
Q 206 2531 84 2484 
L 38 2597 
L 900 2947 
L 1034 2947 
L 1034 2341 
z
" transform="scale(0.015625)"/>
      </defs>
      <use xlink:href="#TimesNewRomanPSMT-50"/>
      <use xlink:href="#TimesNewRomanPSMT-72" x="55.615234"/>
      <use xlink:href="#TimesNewRomanPSMT-6f" x="88.916016"/>
      <use xlink:href="#TimesNewRomanPSMT-62" x="138.916016"/>
      <use xlink:href="#TimesNewRomanPSMT-61" x="188.916016"/>
      <use xlink:href="#TimesNewRomanPSMT-62" x="233.300781"/>
      <use xlink:href="#TimesNewRomanPSMT-69" x="283.300781"/>
      <use xlink:href="#TimesNewRomanPSMT-6c" x="311.083984"/>
      <use xlink:href="#TimesNewRomanPSMT-69" x="338.867188"/>
      <use xlink:href="#TimesNewRomanPSMT-74" x="366.650391"/>
      <use xlink:href="#TimesNewRomanPSMT-79" x="394.433594"/>
      <use xlink:href="#TimesNewRomanPSMT-20" x="444.433594"/>
      <use xlink:href="#TimesNewRomanPSMT-64" x="469.433594"/>
      <use xlink:href="#TimesNewRomanPSMT-65" x="519.433594"/>
      <use xlink:href="#TimesNewRomanPSMT-6e" x="563.818359"/>
      <use xlink:href="#TimesNewRomanPSMT-73" x="613.818359"/>
      <use xlink:href="#TimesNewRomanPSMT-69" x="652.734375"/>
      <use xlink:href="#TimesNewRomanPSMT-74" x="680.517578"/>
      <use xlink:href="#TimesNewRomanPSMT-79" x="708.300781"/>
     </g>
    </g>
   </g>
   <g id="line2d_31">
    <path d="M 88.582677 189.212598 
L 91.104314 189.212598 
L 93.625952 189.212598 
L 96.147589 189.212598 
L 98.669226 189.212598 
L 101.190864 189.212598 
L 103.712501 189.212598 
L 106.234138 189.212598 
L 108.755775 189.212598 
L 111.277413 189.212598 
L 113.79905 189.212598 
L 116.320687 189.212598 
L 118.842324 189.212598 
L 121.363962 189.212598 
L 123.513901 -1 
M 126.549321 -1 
L 128.928874 24.437618 
L 131.450511 47.60418 
L 133.972148 67.513635 
L 136.493785 84.623918 
L 139.015423 99.328578 
L 141.53706 111.965834 
L 144.058697 122.826354 
L 146.580334 132.159937 
L 149.101972 140.181264 
L 151.623609 147.074831 
L 154.145246 152.999196 
L 156.666884 158.090625 
L 159.188521 162.466223 
L 161.710158 166.226633 
L 164.231795 169.458348 
L 166.753433 172.2357 
L 169.27507 174.622569 
L 171.796707 176.673856 
L 174.318345 178.436743 
L 176.839982 179.951776 
L 179.361619 181.253802 
L 181.883256 182.37277 
L 184.404894 183.334417 
L 186.926531 184.160861 
L 189.448168 184.87111 
L 191.969805 185.481503 
L 194.491443 186.006076 
L 197.01308 186.456898 
L 199.534717 186.844336 
L 202.056355 187.177302 
L 204.577992 187.463455 
L 207.099629 187.709376 
L 209.621266 187.920722 
L 212.142904 188.102353 
L 214.664541 188.258448 
L 217.186178 188.392597 
L 219.707815 188.507885 
L 222.229453 188.606965 
L 224.75109 188.692114 
L 227.272727 188.765291 
L 229.794365 188.828181 
L 232.316002 188.882228 
L 234.837639 188.928676 
L 237.359276 188.968594 
L 239.880914 189.0029 
L 242.402551 189.032383 
L 244.924188 189.05772 
L 247.445825 189.079495 
L 249.967463 189.098209 
L 252.4891 189.114292 
L 255.010737 189.128113 
L 257.532375 189.139991 
L 260.054012 189.150199 
L 262.575649 189.158972 
L 265.097286 189.166512 
L 267.618924 189.172992 
L 270.140561 189.17856 
L 272.662198 189.183346 
L 275.183835 189.187458 
L 277.705473 189.190993 
L 280.22711 189.194031 
L 282.748747 189.196641 
L 285.270385 189.198885 
L 287.792022 189.200813 
L 290.313659 189.20247 
L 292.835296 189.203894 
L 295.356934 189.205118 
L 297.878571 189.206169 
L 300.400208 189.207073 
L 302.921846 189.20785 
L 305.443483 189.208518 
L 307.96512 189.209091 
L 310.486757 189.209584 
L 313.008395 189.210008 
L 315.530032 189.210372 
L 318.051669 189.210685 
L 320.573306 189.210954 
L 323.094944 189.211185 
L 325.616581 189.211384 
L 328.138218 189.211555 
L 330.659856 189.211702 
L 333.181493 189.211828 
L 335.70313 189.211936 
L 338.224767 189.212029 
" clip-path="url(#p4316b709e3)" style="fill: none; stroke-dasharray: 7.4,3.2; stroke-dashoffset: 0; stroke: #1f77b4; stroke-opacity: 0.85; stroke-width: 2"/>
   </g>
   <g id="line2d_32">
    <path d="M 88.582677 189.212598 
L 91.104314 189.212598 
L 93.625952 189.212598 
L 96.147589 189.212598 
L 98.669226 189.212598 
L 101.190864 189.212598 
L 103.712501 189.212598 
L 106.234138 189.212598 
L 108.755775 189.212598 
L 111.277413 189.212598 
L 113.79905 189.212598 
L 116.320687 189.212598 
L 118.842324 189.212598 
L 121.363962 189.212598 
L 123.885599 189.212598 
L 125.833894 -1 
M 130.739808 -1 
L 131.450511 7.383789 
L 133.972148 32.948036 
L 136.493785 54.918074 
L 139.015423 73.799231 
L 141.53706 90.02579 
L 144.058697 103.970973 
L 146.580334 115.955531 
L 149.101972 126.255119 
L 151.623609 135.106634 
L 154.145246 142.71367 
L 156.666884 149.251193 
L 159.188521 154.869573 
L 161.710158 159.698035 
L 164.231795 163.847639 
L 166.753433 167.413829 
L 169.27507 170.47863 
L 171.796707 173.112535 
L 174.318345 175.376126 
L 176.839982 177.321466 
L 179.361619 178.993302 
L 181.883256 180.430085 
L 184.404894 181.664864 
L 186.926531 182.726039 
L 189.448168 183.638017 
L 191.969805 184.421776 
L 194.491443 185.095343 
L 197.01308 185.674209 
L 199.534717 186.171689 
L 202.056355 186.599226 
L 204.577992 186.966654 
L 207.099629 187.282423 
L 209.621266 187.553796 
L 212.142904 187.787016 
L 214.664541 187.987446 
L 217.186178 188.159696 
L 219.707815 188.307729 
L 222.229453 188.434949 
L 224.75109 188.544283 
L 227.272727 188.638245 
L 229.794365 188.718996 
L 232.316002 188.788394 
L 234.837639 188.848035 
L 237.359276 188.899291 
L 239.880914 188.943341 
L 242.402551 188.981197 
L 244.924188 189.013731 
L 247.445825 189.041691 
L 249.967463 189.065719 
L 252.4891 189.08637 
L 255.010737 189.104117 
L 257.532375 189.119369 
L 260.054012 189.132477 
L 262.575649 189.143741 
L 265.097286 189.153422 
L 267.618924 189.161742 
L 270.140561 189.168892 
L 272.662198 189.175037 
L 275.183835 189.180318 
L 277.705473 189.184857 
L 280.22711 189.188757 
L 282.748747 189.192109 
L 285.270385 189.19499 
L 287.792022 189.197465 
L 290.313659 189.199593 
L 292.835296 189.201422 
L 295.356934 189.202993 
L 297.878571 189.204343 
L 300.400208 189.205504 
L 302.921846 189.206501 
L 305.443483 189.207359 
L 307.96512 189.208095 
L 310.486757 189.208728 
L 313.008395 189.209273 
L 315.530032 189.20974 
L 318.051669 189.210142 
L 320.573306 189.210487 
L 323.094944 189.210784 
L 325.616581 189.211039 
L 328.138218 189.211258 
L 330.659856 189.211447 
L 333.181493 189.211609 
L 335.70313 189.211748 
L 338.224767 189.211867 
" clip-path="url(#p4316b709e3)" style="fill: none; stroke-dasharray: 12.8,3.2,2,3.2; stroke-dashoffset: 0; stroke: #ff7f0e; stroke-opacity: 0.85; stroke-width: 2"/>
   </g>
   <g id="patch_3">
    <path d="M 88.582677 189.212598 
L 88.582677 25.511811 
" style="fill: none; stroke: #000000; stroke-width: 0.8; stroke-linejoin: miter; stroke-linecap: square"/>
   </g>
   <g id="patch_4">
    <path d="M 338.224767 189.212598 
L 338.224767 25.511811 
" style="fill: none; stroke: #000000; stroke-width: 0.8; stroke-linejoin: miter; stroke-linecap: square"/>
   </g>
   <g id="patch_5">
    <path d="M 88.582677 189.212598 
L 338.224767 189.212598 
" style="fill: none; stroke: #000000; stroke-width: 0.8; stroke-linejoin: miter; stroke-linecap: square"/>
   </g>
   <g id="patch_6">
    <path d="M 88.582677 25.511811 
L 338.224767 25.511811 
" style="fill: none; stroke: #000000; stroke-width: 0.8; stroke-linejoin: miter; stroke-linecap: square"/>
   </g>
   <g id="legend_1">
    <g id="patch_7">
     <path d="M 217.135705 61.789936 
L 331.224767 61.789936 
Q 333.224767 61.789936 333.224767 59.789936 
L 333.224767 32.511811 
Q 333.224767 30.511811 331.224767 30.511811 
L 217.135705 30.511811 
Q 215.135705 30.511811 215.135705 32.511811 
L 215.135705 59.789936 
Q 215.135705 61.789936 217.135705 61.789936 
z
" style="fill: #ffffff; opacity: 0.8; stroke: #cccccc; stroke-linejoin: miter"/>
    </g>
    <g id="line2d_33">
     <path d="M 219.135705 38.011811 
L 229.135705 38.011811 
L 239.135705 38.011811 
" style="fill: none; stroke-dasharray: 7.4,3.2; stroke-dashoffset: 0; stroke: #1f77b4; stroke-opacity: 0.85; stroke-width: 2"/>
    </g>
    <g id="text_18">
     <!-- pt=2, var=neutral -->
     <g transform="translate(247.135705 41.511811) scale(0.1 -0.1)">
      <defs>
       <path id="TimesNewRomanPSMT-70" d="M -6 2578 
L 875 2934 
L 994 2934 
L 994 2266 
Q 1216 2644 1439 2795 
Q 1663 2947 1909 2947 
Q 2341 2947 2628 2609 
Q 2981 2197 2981 1534 
Q 2981 794 2556 309 
Q 2206 -88 1675 -88 
Q 1444 -88 1275 -22 
Q 1150 25 994 166 
L 994 -706 
Q 994 -1000 1030 -1079 
Q 1066 -1159 1155 -1206 
Q 1244 -1253 1478 -1253 
L 1478 -1369 
L -22 -1369 
L -22 -1253 
L 56 -1253 
Q 228 -1256 350 -1188 
Q 409 -1153 442 -1076 
Q 475 -1000 475 -688 
L 475 2019 
Q 475 2297 450 2372 
Q 425 2447 370 2484 
Q 316 2522 222 2522 
Q 147 2522 31 2478 
L -6 2578 
z
M 994 2081 
L 994 1013 
Q 994 666 1022 556 
Q 1066 375 1236 237 
Q 1406 100 1666 100 
Q 1978 100 2172 344 
Q 2425 663 2425 1241 
Q 2425 1897 2138 2250 
Q 1938 2494 1663 2494 
Q 1513 2494 1366 2419 
Q 1253 2363 994 2081 
z
" transform="scale(0.015625)"/>
       <path id="TimesNewRomanPSMT-3d" d="M 116 2759 
L 3488 2759 
L 3488 2503 
L 116 2503 
L 116 2759 
z
M 116 1741 
L 3488 1741 
L 3488 1484 
L 116 1484 
L 116 1741 
z
" transform="scale(0.015625)"/>
       <path id="TimesNewRomanPSMT-2c" d="M 344 -1066 
L 344 -928 
Q 666 -822 842 -598 
Q 1019 -375 1019 -125 
Q 1019 -66 991 -25 
Q 969 3 947 3 
Q 913 3 797 -59 
Q 741 -88 678 -88 
Q 525 -88 434 3 
Q 344 94 344 253 
Q 344 406 461 515 
Q 578 625 747 625 
Q 953 625 1114 445 
Q 1275 266 1275 -31 
Q 1275 -353 1051 -629 
Q 828 -906 344 -1066 
z
" transform="scale(0.015625)"/>
       <path id="TimesNewRomanPSMT-76" d="M 53 2863 
L 1400 2863 
L 1400 2747 
L 1313 2747 
Q 1191 2747 1127 2687 
Q 1063 2628 1063 2528 
Q 1063 2419 1128 2269 
L 1794 688 
L 2463 2328 
Q 2534 2503 2534 2594 
Q 2534 2638 2509 2666 
Q 2475 2713 2422 2730 
Q 2369 2747 2206 2747 
L 2206 2863 
L 3141 2863 
L 3141 2747 
Q 2978 2734 2916 2681 
Q 2806 2588 2719 2369 
L 1703 -88 
L 1575 -88 
L 553 2328 
Q 484 2497 421 2570 
Q 359 2644 263 2694 
Q 209 2722 53 2747 
L 53 2863 
z
" transform="scale(0.015625)"/>
       <path id="TimesNewRomanPSMT-75" d="M 2709 2863 
L 2709 1128 
Q 2709 631 2732 520 
Q 2756 409 2807 365 
Q 2859 322 2928 322 
Q 3025 322 3147 375 
L 3191 266 
L 2334 -88 
L 2194 -88 
L 2194 519 
Q 1825 119 1631 15 
Q 1438 -88 1222 -88 
Q 981 -88 804 51 
Q 628 191 559 409 
Q 491 628 491 1028 
L 491 2306 
Q 491 2509 447 2587 
Q 403 2666 317 2708 
Q 231 2750 6 2747 
L 6 2863 
L 1009 2863 
L 1009 947 
Q 1009 547 1148 422 
Q 1288 297 1484 297 
Q 1619 297 1789 381 
Q 1959 466 2194 703 
L 2194 2325 
Q 2194 2569 2105 2655 
Q 2016 2741 1734 2747 
L 1734 2863 
L 2709 2863 
z
" transform="scale(0.015625)"/>
      </defs>
      <use xlink:href="#TimesNewRomanPSMT-70"/>
      <use xlink:href="#TimesNewRomanPSMT-74" x="50"/>
      <use xlink:href="#TimesNewRomanPSMT-3d" x="77.783203"/>
      <use xlink:href="#TimesNewRomanPSMT-32" x="134.179688"/>
      <use xlink:href="#TimesNewRomanPSMT-2c" x="184.179688"/>
      <use xlink:href="#TimesNewRomanPSMT-20" x="209.179688"/>
      <use xlink:href="#TimesNewRomanPSMT-76" x="234.179688"/>
      <use xlink:href="#TimesNewRomanPSMT-61" x="284.179688"/>
      <use xlink:href="#TimesNewRomanPSMT-72" x="328.564453"/>
      <use xlink:href="#TimesNewRomanPSMT-3d" x="361.865234"/>
      <use xlink:href="#TimesNewRomanPSMT-6e" x="418.261719"/>
      <use xlink:href="#TimesNewRomanPSMT-65" x="468.261719"/>
      <use xlink:href="#TimesNewRomanPSMT-75" x="512.646484"/>
      <use xlink:href="#TimesNewRomanPSMT-74" x="562.646484"/>
      <use xlink:href="#TimesNewRomanPSMT-72" x="590.429688"/>
      <use xlink:href="#TimesNewRomanPSMT-61" x="623.730469"/>
      <use xlink:href="#TimesNewRomanPSMT-6c" x="668.115234"/>
     </g>
    </g>
    <g id="line2d_34">
     <path d="M 219.135705 52.150874 
L 229.135705 52.150874 
L 239.135705 52.150874 
" style="fill: none; stroke-dasharray: 12.8,3.2,2,3.2; stroke-dashoffset: 0; stroke: #ff7f0e; stroke-opacity: 0.85; stroke-width: 2"/>
    </g>
    <g id="text_19">
     <!-- pt=2.25, var=neutral -->
     <g transform="translate(247.135705 55.650874) scale(0.1 -0.1)">
      <use xlink:href="#TimesNewRomanPSMT-70"/>
      <use xlink:href="#TimesNewRomanPSMT-74" x="50"/>
      <use xlink:href="#TimesNewRomanPSMT-3d" x="77.783203"/>
      <use xlink:href="#TimesNewRomanPSMT-32" x="134.179688"/>
      <use xlink:href="#TimesNewRomanPSMT-2e" x="184.179688"/>
      <use xlink:href="#TimesNewRomanPSMT-32" x="209.179688"/>
      <use xlink:href="#TimesNewRomanPSMT-35" x="259.179688"/>
      <use xlink:href="#TimesNewRomanPSMT-2c" x="309.179688"/>
      <use xlink:href="#TimesNewRomanPSMT-20" x="334.179688"/>
      <use xlink:href="#TimesNewRomanPSMT-76" x="359.179688"/>
      <use xlink:href="#TimesNewRomanPSMT-61" x="409.179688"/>
      <use xlink:href="#TimesNewRomanPSMT-72" x="453.564453"/>
      <use xlink:href="#TimesNewRomanPSMT-3d" x="486.865234"/>
      <use xlink:href="#TimesNewRomanPSMT-6e" x="543.261719"/>
      <use xlink:href="#TimesNewRomanPSMT-65" x="593.261719"/>
      <use xlink:href="#TimesNewRomanPSMT-75" x="637.646484"/>
      <use xlink:href="#TimesNewRomanPSMT-74" x="687.646484"/>
      <use xlink:href="#TimesNewRomanPSMT-72" x="715.429688"/>
      <use xlink:href="#TimesNewRomanPSMT-61" x="748.730469"/>
      <use xlink:href="#TimesNewRomanPSMT-6c" x="793.115234"/>
     </g>
    </g>
   </g>
  </g>
  <g id="axes_2">
   <g id="patch_8">
    <path d="M 388.153185 189.212598 
L 637.795276 189.212598 
L 637.795276 25.511811 
L 388.153185 25.511811 
z
" style="fill: #ffffff"/>
   </g>
   <g id="matplotlib.axis_3">
    <g id="xtick_9">
     <g id="line2d_35">
      <path d="M 388.153185 189.212598 
L 388.153185 25.511811 
" clip-path="url(#pe845c0ddcd)" style="fill: none; stroke: #c0c0c0; stroke-width: 0.8; stroke-linecap: square"/>
     </g>
     <g id="line2d_36">
      <g>
       <use xlink:href="#m5e459527a5" x="388.153185" y="189.212598" style="stroke: #000000; stroke-width: 0.8"/>
      </g>
     </g>
     <g id="text_20">
      <!-- 0 -->
      <g transform="translate(385.653185 203.156348) scale(0.1 -0.1)">
       <use xlink:href="#TimesNewRomanPSMT-30"/>
      </g>
     </g>
    </g>
    <g id="xtick_10">
     <g id="line2d_37">
      <path d="M 421.438797 189.212598 
L 421.438797 25.511811 
" clip-path="url(#pe845c0ddcd)" style="fill: none; stroke: #c0c0c0; stroke-width: 0.8; stroke-linecap: square"/>
     </g>
     <g id="line2d_38">
      <g>
       <use xlink:href="#m5e459527a5" x="421.438797" y="189.212598" style="stroke: #000000; stroke-width: 0.8"/>
      </g>
     </g>
     <g id="text_21">
      <!-- 2 -->
      <g transform="translate(418.938797 203.156348) scale(0.1 -0.1)">
       <use xlink:href="#TimesNewRomanPSMT-32"/>
      </g>
     </g>
    </g>
    <g id="xtick_11">
     <g id="line2d_39">
      <path d="M 454.724409 189.212598 
L 454.724409 25.511811 
" clip-path="url(#pe845c0ddcd)" style="fill: none; stroke: #c0c0c0; stroke-width: 0.8; stroke-linecap: square"/>
     </g>
     <g id="line2d_40">
      <g>
       <use xlink:href="#m5e459527a5" x="454.724409" y="189.212598" style="stroke: #000000; stroke-width: 0.8"/>
      </g>
     </g>
     <g id="text_22">
      <!-- 4 -->
      <g transform="translate(452.224409 203.156348) scale(0.1 -0.1)">
       <use xlink:href="#TimesNewRomanPSMT-34"/>
      </g>
     </g>
    </g>
    <g id="xtick_12">
     <g id="line2d_41">
      <path d="M 488.010021 189.212598 
L 488.010021 25.511811 
" clip-path="url(#pe845c0ddcd)" style="fill: none; stroke: #c0c0c0; stroke-width: 0.8; stroke-linecap: square"/>
     </g>
     <g id="line2d_42">
      <g>
       <use xlink:href="#m5e459527a5" x="488.010021" y="189.212598" style="stroke: #000000; stroke-width: 0.8"/>
      </g>
     </g>
     <g id="text_23">
      <!-- 6 -->
      <g transform="translate(485.510021 203.156348) scale(0.1 -0.1)">
       <use xlink:href="#TimesNewRomanPSMT-36"/>
      </g>
     </g>
    </g>
    <g id="xtick_13">
     <g id="line2d_43">
      <path d="M 521.295634 189.212598 
L 521.295634 25.511811 
" clip-path="url(#pe845c0ddcd)" style="fill: none; stroke: #c0c0c0; stroke-width: 0.8; stroke-linecap: square"/>
     </g>
     <g id="line2d_44">
      <g>
       <use xlink:href="#m5e459527a5" x="521.295634" y="189.212598" style="stroke: #000000; stroke-width: 0.8"/>
      </g>
     </g>
     <g id="text_24">
      <!-- 8 -->
      <g transform="translate(518.795634 203.156348) scale(0.1 -0.1)">
       <use xlink:href="#TimesNewRomanPSMT-38"/>
      </g>
     </g>
    </g>
    <g id="xtick_14">
     <g id="line2d_45">
      <path d="M 554.581246 189.212598 
L 554.581246 25.511811 
" clip-path="url(#pe845c0ddcd)" style="fill: none; stroke: #c0c0c0; stroke-width: 0.8; stroke-linecap: square"/>
     </g>
     <g id="line2d_46">
      <g>
       <use xlink:href="#m5e459527a5" x="554.581246" y="189.212598" style="stroke: #000000; stroke-width: 0.8"/>
      </g>
     </g>
     <g id="text_25">
      <!-- 10 -->
      <g transform="translate(549.581246 203.156348) scale(0.1 -0.1)">
       <use xlink:href="#TimesNewRomanPSMT-31"/>
       <use xlink:href="#TimesNewRomanPSMT-30" x="50"/>
      </g>
     </g>
    </g>
    <g id="xtick_15">
     <g id="line2d_47">
      <path d="M 587.866858 189.212598 
L 587.866858 25.511811 
" clip-path="url(#pe845c0ddcd)" style="fill: none; stroke: #c0c0c0; stroke-width: 0.8; stroke-linecap: square"/>
     </g>
     <g id="line2d_48">
      <g>
       <use xlink:href="#m5e459527a5" x="587.866858" y="189.212598" style="stroke: #000000; stroke-width: 0.8"/>
      </g>
     </g>
     <g id="text_26">
      <!-- 12 -->
      <g transform="translate(582.866858 203.156348) scale(0.1 -0.1)">
       <use xlink:href="#TimesNewRomanPSMT-31"/>
       <use xlink:href="#TimesNewRomanPSMT-32" x="50"/>
      </g>
     </g>
    </g>
    <g id="xtick_16">
     <g id="line2d_49">
      <path d="M 621.15247 189.212598 
L 621.15247 25.511811 
" clip-path="url(#pe845c0ddcd)" style="fill: none; stroke: #c0c0c0; stroke-width: 0.8; stroke-linecap: square"/>
     </g>
     <g id="line2d_50">
      <g>
       <use xlink:href="#m5e459527a5" x="621.15247" y="189.212598" style="stroke: #000000; stroke-width: 0.8"/>
      </g>
     </g>
     <g id="text_27">
      <!-- 14 -->
      <g transform="translate(616.15247 203.156348) scale(0.1 -0.1)">
       <use xlink:href="#TimesNewRomanPSMT-31"/>
       <use xlink:href="#TimesNewRomanPSMT-34" x="50"/>
      </g>
     </g>
    </g>
    <g id="text_28">
     <!-- Process time -->
     <g transform="translate(482.478293 217.627911) scale(0.12 -0.12)">
      <use xlink:href="#TimesNewRomanPSMT-50"/>
      <use xlink:href="#TimesNewRomanPSMT-72" x="55.615234"/>
      <use xlink:href="#TimesNewRomanPSMT-6f" x="88.916016"/>
      <use xlink:href="#TimesNewRomanPSMT-63" x="138.916016"/>
      <use xlink:href="#TimesNewRomanPSMT-65" x="183.300781"/>
      <use xlink:href="#TimesNewRomanPSMT-73" x="227.685547"/>
      <use xlink:href="#TimesNewRomanPSMT-73" x="266.601562"/>
      <use xlink:href="#TimesNewRomanPSMT-20" x="305.517578"/>
      <use xlink:href="#TimesNewRomanPSMT-74" x="330.517578"/>
      <use xlink:href="#TimesNewRomanPSMT-69" x="358.300781"/>
      <use xlink:href="#TimesNewRomanPSMT-6d" x="386.083984"/>
      <use xlink:href="#TimesNewRomanPSMT-65" x="463.867188"/>
     </g>
    </g>
   </g>
   <g id="matplotlib.axis_4">
    <g id="ytick_8">
     <g id="line2d_51">
      <path d="M 388.153185 189.212598 
L 637.795276 189.212598 
" clip-path="url(#pe845c0ddcd)" style="fill: none; stroke: #c0c0c0; stroke-width: 0.8; stroke-linecap: square"/>
     </g>
     <g id="line2d_52">
      <g>
       <use xlink:href="#m3c36437a5f" x="388.153185" y="189.212598" style="stroke: #000000; stroke-width: 0.8"/>
      </g>
     </g>
     <g id="text_29">
      <!-- 0.0 -->
      <g transform="translate(368.653185 192.684473) scale(0.1 -0.1)">
       <use xlink:href="#TimesNewRomanPSMT-30"/>
       <use xlink:href="#TimesNewRomanPSMT-2e" x="50"/>
       <use xlink:href="#TimesNewRomanPSMT-30" x="75"/>
      </g>
     </g>
    </g>
    <g id="ytick_9">
     <g id="line2d_53">
      <path d="M 388.153185 164.027862 
L 637.795276 164.027862 
" clip-path="url(#pe845c0ddcd)" style="fill: none; stroke: #c0c0c0; stroke-width: 0.8; stroke-linecap: square"/>
     </g>
     <g id="line2d_54">
      <g>
       <use xlink:href="#m3c36437a5f" x="388.153185" y="164.027862" style="stroke: #000000; stroke-width: 0.8"/>
      </g>
     </g>
     <g id="text_30">
      <!-- 0.1 -->
      <g transform="translate(368.653185 167.499737) scale(0.1 -0.1)">
       <use xlink:href="#TimesNewRomanPSMT-30"/>
       <use xlink:href="#TimesNewRomanPSMT-2e" x="50"/>
       <use xlink:href="#TimesNewRomanPSMT-31" x="75"/>
      </g>
     </g>
    </g>
    <g id="ytick_10">
     <g id="line2d_55">
      <path d="M 388.153185 138.843125 
L 637.795276 138.843125 
" clip-path="url(#pe845c0ddcd)" style="fill: none; stroke: #c0c0c0; stroke-width: 0.8; stroke-linecap: square"/>
     </g>
     <g id="line2d_56">
      <g>
       <use xlink:href="#m3c36437a5f" x="388.153185" y="138.843125" style="stroke: #000000; stroke-width: 0.8"/>
      </g>
     </g>
     <g id="text_31">
      <!-- 0.2 -->
      <g transform="translate(368.653185 142.315) scale(0.1 -0.1)">
       <use xlink:href="#TimesNewRomanPSMT-30"/>
       <use xlink:href="#TimesNewRomanPSMT-2e" x="50"/>
       <use xlink:href="#TimesNewRomanPSMT-32" x="75"/>
      </g>
     </g>
    </g>
    <g id="ytick_11">
     <g id="line2d_57">
      <path d="M 388.153185 113.658389 
L 637.795276 113.658389 
" clip-path="url(#pe845c0ddcd)" style="fill: none; stroke: #c0c0c0; stroke-width: 0.8; stroke-linecap: square"/>
     </g>
     <g id="line2d_58">
      <g>
       <use xlink:href="#m3c36437a5f" x="388.153185" y="113.658389" style="stroke: #000000; stroke-width: 0.8"/>
      </g>
     </g>
     <g id="text_32">
      <!-- 0.3 -->
      <g transform="translate(368.653185 117.130264) scale(0.1 -0.1)">
       <use xlink:href="#TimesNewRomanPSMT-30"/>
       <use xlink:href="#TimesNewRomanPSMT-2e" x="50"/>
       <use xlink:href="#TimesNewRomanPSMT-33" x="75"/>
      </g>
     </g>
    </g>
    <g id="ytick_12">
     <g id="line2d_59">
      <path d="M 388.153185 88.473652 
L 637.795276 88.473652 
" clip-path="url(#pe845c0ddcd)" style="fill: none; stroke: #c0c0c0; stroke-width: 0.8; stroke-linecap: square"/>
     </g>
     <g id="line2d_60">
      <g>
       <use xlink:href="#m3c36437a5f" x="388.153185" y="88.473652" style="stroke: #000000; stroke-width: 0.8"/>
      </g>
     </g>
     <g id="text_33">
      <!-- 0.4 -->
      <g transform="translate(368.653185 91.945527) scale(0.1 -0.1)">
       <use xlink:href="#TimesNewRomanPSMT-30"/>
       <use xlink:href="#TimesNewRomanPSMT-2e" x="50"/>
       <use xlink:href="#TimesNewRomanPSMT-34" x="75"/>
      </g>
     </g>
    </g>
    <g id="ytick_13">
     <g id="line2d_61">
      <path d="M 388.153185 63.288916 
L 637.795276 63.288916 
" clip-path="url(#pe845c0ddcd)" style="fill: none; stroke: #c0c0c0; stroke-width: 0.8; stroke-linecap: square"/>
     </g>
     <g id="line2d_62">
      <g>
       <use xlink:href="#m3c36437a5f" x="388.153185" y="63.288916" style="stroke: #000000; stroke-width: 0.8"/>
      </g>
     </g>
     <g id="text_34">
      <!-- 0.5 -->
      <g transform="translate(368.653185 66.760791) scale(0.1 -0.1)">
       <use xlink:href="#TimesNewRomanPSMT-30"/>
       <use xlink:href="#TimesNewRomanPSMT-2e" x="50"/>
       <use xlink:href="#TimesNewRomanPSMT-35" x="75"/>
      </g>
     </g>
    </g>
    <g id="ytick_14">
     <g id="line2d_63">
      <path d="M 388.153185 38.104179 
L 637.795276 38.104179 
" clip-path="url(#pe845c0ddcd)" style="fill: none; stroke: #c0c0c0; stroke-width: 0.8; stroke-linecap: square"/>
     </g>
     <g id="line2d_64">
      <g>
       <use xlink:href="#m3c36437a5f" x="388.153185" y="38.104179" style="stroke: #000000; stroke-width: 0.8"/>
      </g>
     </g>
     <g id="text_35">
      <!-- 0.6 -->
      <g transform="translate(368.653185 41.576054) scale(0.1 -0.1)">
       <use xlink:href="#TimesNewRomanPSMT-30"/>
       <use xlink:href="#TimesNewRomanPSMT-2e" x="50"/>
       <use xlink:href="#TimesNewRomanPSMT-36" x="75"/>
      </g>
     </g>
    </g>
    <g id="text_36">
     <!-- Probability density -->
     <g transform="translate(362.06381 152.860017) rotate(-90) scale(0.12 -0.12)">
      <use xlink:href="#TimesNewRomanPSMT-50"/>
      <use xlink:href="#TimesNewRomanPSMT-72" x="55.615234"/>
      <use xlink:href="#TimesNewRomanPSMT-6f" x="88.916016"/>
      <use xlink:href="#TimesNewRomanPSMT-62" x="138.916016"/>
      <use xlink:href="#TimesNewRomanPSMT-61" x="188.916016"/>
      <use xlink:href="#TimesNewRomanPSMT-62" x="233.300781"/>
      <use xlink:href="#TimesNewRomanPSMT-69" x="283.300781"/>
      <use xlink:href="#TimesNewRomanPSMT-6c" x="311.083984"/>
      <use xlink:href="#TimesNewRomanPSMT-69" x="338.867188"/>
      <use xlink:href="#TimesNewRomanPSMT-74" x="366.650391"/>
      <use xlink:href="#TimesNewRomanPSMT-79" x="394.433594"/>
      <use xlink:href="#TimesNewRomanPSMT-20" x="444.433594"/>
      <use xlink:href="#TimesNewRomanPSMT-64" x="469.433594"/>
      <use xlink:href="#TimesNewRomanPSMT-65" x="519.433594"/>
      <use xlink:href="#TimesNewRomanPSMT-6e" x="563.818359"/>
      <use xlink:href="#TimesNewRomanPSMT-73" x="613.818359"/>
      <use xlink:href="#TimesNewRomanPSMT-69" x="652.734375"/>
      <use xlink:href="#TimesNewRomanPSMT-74" x="680.517578"/>
      <use xlink:href="#TimesNewRomanPSMT-79" x="708.300781"/>
     </g>
    </g>
   </g>
   <g id="line2d_65">
    <path d="M 388.153185 189.212598 
L 390.674823 189.212598 
L 393.19646 189.212598 
L 395.718097 189.212598 
L 398.239734 189.212598 
L 400.761372 189.212598 
L 403.283009 189.212598 
L 405.804646 189.212598 
L 408.326284 189.212598 
L 410.847921 189.212598 
L 412.305457 -1 
M 420.263054 -1 
L 420.93447 9.700491 
L 423.456107 42.537129 
L 425.977745 69.367238 
L 428.499382 91.28954 
L 431.021019 109.201781 
L 433.542656 123.837486 
L 436.064294 135.796005 
L 438.585931 145.567052 
L 441.107568 153.550764 
L 443.629205 160.074083 
L 446.150843 165.404147 
L 448.67248 169.759226 
L 451.194117 173.317668 
L 453.715755 176.225194 
L 456.237392 178.60087 
L 458.759029 180.541984 
L 461.280666 182.128027 
L 463.802304 183.423948 
L 466.323941 184.482817 
L 468.845578 185.347996 
L 471.367215 186.054915 
L 473.888853 186.632524 
L 476.41049 187.104475 
L 478.932127 187.490096 
L 481.453765 187.805179 
L 483.975402 188.062626 
L 486.497039 188.272981 
L 489.018676 188.444857 
L 491.540314 188.585294 
L 494.061951 188.700041 
L 496.583588 188.793799 
L 499.105225 188.870407 
L 501.626863 188.933001 
L 504.1485 188.984145 
L 506.670137 189.025934 
L 509.191775 189.060079 
L 511.713412 189.087978 
L 514.235049 189.110774 
L 516.756686 189.1294 
L 519.278324 189.144619 
L 521.799961 189.157054 
L 524.321598 189.167214 
L 526.843236 189.175516 
L 529.364873 189.182299 
L 531.88651 189.187841 
L 534.408147 189.19237 
L 536.929785 189.19607 
L 539.451422 189.199094 
L 541.973059 189.201564 
L 544.494696 189.203582 
L 547.016334 189.205232 
L 549.537971 189.206579 
L 552.059608 189.20768 
L 554.581246 189.20858 
L 557.102883 189.209315 
L 559.62452 189.209916 
L 562.146157 189.210406 
L 564.667795 189.210807 
L 567.189432 189.211135 
L 569.711069 189.211403 
L 572.232706 189.211621 
L 574.754344 189.2118 
L 577.275981 189.211946 
L 579.797618 189.212065 
L 582.319256 189.212163 
L 584.840893 189.212243 
L 587.36253 189.212308 
L 589.884167 189.212361 
L 592.405805 189.212404 
L 594.927442 189.21244 
L 597.449079 189.212469 
L 599.970716 189.212493 
L 602.492354 189.212512 
L 605.013991 189.212528 
L 607.535628 189.212541 
L 610.057266 189.212551 
L 612.578903 189.21256 
L 615.10054 189.212567 
L 617.622177 189.212573 
L 620.143815 189.212577 
L 622.665452 189.212581 
L 625.187089 189.212584 
L 627.708726 189.212587 
L 630.230364 189.212589 
L 632.752001 189.212591 
L 635.273638 189.212592 
L 637.795276 189.212593 
" clip-path="url(#pe845c0ddcd)" style="fill: none; stroke-dasharray: 7.4,3.2; stroke-dashoffset: 0; stroke: #1f77b4; stroke-opacity: 0.85; stroke-width: 2"/>
   </g>
   <g id="line2d_66">
    <path d="M 388.153185 189.212598 
L 390.674823 189.212598 
L 393.19646 189.212598 
L 395.718097 189.212598 
L 398.239734 189.212598 
L 400.761372 189.212598 
L 403.283009 189.212598 
L 405.804646 189.212598 
L 408.326284 189.212598 
L 410.847921 189.212598 
L 413.369558 189.212598 
L 415.891195 189.212598 
L 418.412833 189.212598 
L 420.93447 189.212598 
L 423.084409 -1 
M 426.119829 -1 
L 428.499382 24.437618 
L 431.021019 47.60418 
L 433.542656 67.513635 
L 436.064294 84.623918 
L 438.585931 99.328578 
L 441.107568 111.965834 
L 443.629205 122.826354 
L 446.150843 132.159937 
L 448.67248 140.181264 
L 451.194117 147.074831 
L 453.715755 152.999196 
L 456.237392 158.090625 
L 458.759029 162.466223 
L 461.280666 166.226633 
L 463.802304 169.458348 
L 466.323941 172.2357 
L 468.845578 174.622569 
L 471.367215 176.673856 
L 473.888853 178.436743 
L 476.41049 179.951776 
L 478.932127 181.253802 
L 481.453765 182.37277 
L 483.975402 183.334417 
L 486.497039 184.160861 
L 489.018676 184.87111 
L 491.540314 185.481503 
L 494.061951 186.006076 
L 496.583588 186.456898 
L 499.105225 186.844336 
L 501.626863 187.177302 
L 504.1485 187.463455 
L 506.670137 187.709376 
L 509.191775 187.920722 
L 511.713412 188.102353 
L 514.235049 188.258448 
L 516.756686 188.392597 
L 519.278324 188.507885 
L 521.799961 188.606965 
L 524.321598 188.692114 
L 526.843236 188.765291 
L 529.364873 188.828181 
L 531.88651 188.882228 
L 534.408147 188.928676 
L 536.929785 188.968594 
L 539.451422 189.0029 
L 541.973059 189.032383 
L 544.494696 189.05772 
L 547.016334 189.079495 
L 549.537971 189.098209 
L 552.059608 189.114292 
L 554.581246 189.128113 
L 557.102883 189.139991 
L 559.62452 189.150199 
L 562.146157 189.158972 
L 564.667795 189.166512 
L 567.189432 189.172992 
L 569.711069 189.17856 
L 572.232706 189.183346 
L 574.754344 189.187458 
L 577.275981 189.190993 
L 579.797618 189.194031 
L 582.319256 189.196641 
L 584.840893 189.198885 
L 587.36253 189.200813 
L 589.884167 189.20247 
L 592.405805 189.203894 
L 594.927442 189.205118 
L 597.449079 189.206169 
L 599.970716 189.207073 
L 602.492354 189.20785 
L 605.013991 189.208518 
L 607.535628 189.209091 
L 610.057266 189.209584 
L 612.578903 189.210008 
L 615.10054 189.210372 
L 617.622177 189.210685 
L 620.143815 189.210954 
L 622.665452 189.211185 
L 625.187089 189.211384 
L 627.708726 189.211555 
L 630.230364 189.211702 
L 632.752001 189.211828 
L 635.273638 189.211936 
L 637.795276 189.212029 
" clip-path="url(#pe845c0ddcd)" style="fill: none; stroke-dasharray: 12.8,3.2,2,3.2; stroke-dashoffset: 0; stroke: #ff7f0e; stroke-opacity: 0.85; stroke-width: 2"/>
   </g>
   <g id="line2d_67">
    <path d="M 388.153185 189.212598 
L 390.674823 189.212598 
L 393.19646 189.212598 
L 395.718097 189.212598 
L 398.239734 189.212598 
L 400.761372 189.212598 
L 403.283009 189.212598 
L 405.804646 189.212598 
L 408.326284 189.212598 
L 410.847921 189.212598 
L 413.369558 189.212598 
L 415.891195 189.212598 
L 418.412833 189.212598 
L 420.93447 189.212598 
L 423.456107 189.212598 
L 425.977745 189.212598 
L 428.499382 189.212598 
L 431.021019 -0.417173 
L 433.542656 21.229818 
L 436.064294 40.405719 
L 438.585931 57.392614 
L 441.107568 72.440388 
L 443.629205 85.770399 
L 446.150843 97.578737 
L 448.67248 108.039106 
L 451.194117 117.305382 
L 453.715755 125.513876 
L 456.237392 132.785338 
L 458.759029 139.226733 
L 461.280666 144.932818 
L 463.802304 149.987531 
L 466.323941 154.465228 
L 468.845578 158.431778 
L 471.367215 161.945531 
L 473.888853 165.058175 
L 476.41049 167.815498 
L 478.932127 170.258062 
L 481.453765 172.421797 
L 483.975402 174.338534 
L 486.497039 176.036467 
L 489.018676 177.540575 
L 491.540314 178.872983 
L 494.061951 180.053291 
L 496.583588 181.098862 
L 499.105225 182.025077 
L 501.626863 182.845561 
L 504.1485 183.572384 
L 506.670137 184.216237 
L 509.191775 184.786591 
L 511.713412 185.291838 
L 514.235049 185.739408 
L 516.756686 186.135886 
L 519.278324 186.487105 
L 521.799961 186.798231 
L 524.321598 187.073841 
L 526.843236 187.317988 
L 529.364873 187.534266 
L 531.88651 187.725854 
L 534.408147 187.895572 
L 536.929785 188.045916 
L 539.451422 188.179097 
L 541.973059 188.297075 
L 544.494696 188.401586 
L 547.016334 188.494166 
L 549.537971 188.576178 
L 552.059608 188.648828 
L 554.581246 188.713185 
L 557.102883 188.770195 
L 559.62452 188.820697 
L 562.146157 188.865434 
L 564.667795 188.905064 
L 567.189432 188.94017 
L 569.711069 188.971269 
L 572.232706 188.998818 
L 574.754344 189.023222 
L 577.275981 189.04484 
L 579.797618 189.06399 
L 582.319256 189.080954 
L 584.840893 189.095982 
L 587.36253 189.109294 
L 589.884167 189.121087 
L 592.405805 189.131533 
L 594.927442 189.140787 
L 597.449079 189.148985 
L 599.970716 189.156246 
L 602.492354 189.162679 
L 605.013991 189.168378 
L 607.535628 189.173426 
L 610.057266 189.177897 
L 612.578903 189.181859 
L 615.10054 189.185368 
L 617.622177 189.188476 
L 620.143815 189.19123 
L 622.665452 189.193669 
L 625.187089 189.19583 
L 627.708726 189.197744 
L 630.230364 189.19944 
L 632.752001 189.200942 
L 635.273638 189.202273 
L 637.795276 189.203451 
" clip-path="url(#pe845c0ddcd)" style="fill: none; stroke-dasharray: 2,3.3; stroke-dashoffset: 0; stroke: #2ca02c; stroke-opacity: 0.85; stroke-width: 2"/>
   </g>
   <g id="patch_9">
    <path d="M 388.153185 189.212598 
L 388.153185 25.511811 
" style="fill: none; stroke: #000000; stroke-width: 0.8; stroke-linejoin: miter; stroke-linecap: square"/>
   </g>
   <g id="patch_10">
    <path d="M 637.795276 189.212598 
L 637.795276 25.511811 
" style="fill: none; stroke: #000000; stroke-width: 0.8; stroke-linejoin: miter; stroke-linecap: square"/>
   </g>
   <g id="patch_11">
    <path d="M 388.153185 189.212598 
L 637.795276 189.212598 
" style="fill: none; stroke: #000000; stroke-width: 0.8; stroke-linejoin: miter; stroke-linecap: square"/>
   </g>
   <g id="patch_12">
    <path d="M 388.153185 25.511811 
L 637.795276 25.511811 
" style="fill: none; stroke: #000000; stroke-width: 0.8; stroke-linejoin: miter; stroke-linecap: square"/>
   </g>
   <g id="legend_2">
    <g id="patch_13">
     <path d="M 529.206213 75.947749 
L 630.795276 75.947749 
Q 632.795276 75.947749 632.795276 73.947749 
L 632.795276 32.511811 
Q 632.795276 30.511811 630.795276 30.511811 
L 529.206213 30.511811 
Q 527.206213 30.511811 527.206213 32.511811 
L 527.206213 73.947749 
Q 527.206213 75.947749 529.206213 75.947749 
z
" style="fill: #ffffff; opacity: 0.8; stroke: #cccccc; stroke-linejoin: miter"/>
    </g>
    <g id="line2d_68">
     <path d="M 531.206213 38.011811 
L 541.206213 38.011811 
L 551.206213 38.011811 
" style="fill: none; stroke-dasharray: 7.4,3.2; stroke-dashoffset: 0; stroke: #1f77b4; stroke-opacity: 0.85; stroke-width: 2"/>
    </g>
    <g id="text_37">
     <!-- pt=2, var=low -->
     <g transform="translate(559.206213 41.511811) scale(0.1 -0.1)">
      <defs>
       <path id="TimesNewRomanPSMT-77" d="M 41 2863 
L 1241 2863 
L 1241 2747 
Q 1075 2734 1023 2687 
Q 972 2641 972 2553 
Q 972 2456 1025 2319 
L 1638 672 
L 2253 2013 
L 2091 2434 
Q 2016 2622 1894 2694 
Q 1825 2738 1638 2747 
L 1638 2863 
L 3000 2863 
L 3000 2747 
Q 2775 2738 2681 2666 
Q 2619 2616 2619 2506 
Q 2619 2444 2644 2378 
L 3294 734 
L 3897 2319 
Q 3959 2488 3959 2588 
Q 3959 2647 3898 2694 
Q 3838 2741 3659 2747 
L 3659 2863 
L 4563 2863 
L 4563 2747 
Q 4291 2706 4163 2378 
L 3206 -88 
L 3078 -88 
L 2363 1741 
L 1528 -88 
L 1413 -88 
L 494 2319 
Q 403 2547 315 2626 
Q 228 2706 41 2747 
L 41 2863 
z
" transform="scale(0.015625)"/>
      </defs>
      <use xlink:href="#TimesNewRomanPSMT-70"/>
      <use xlink:href="#TimesNewRomanPSMT-74" x="50"/>
      <use xlink:href="#TimesNewRomanPSMT-3d" x="77.783203"/>
      <use xlink:href="#TimesNewRomanPSMT-32" x="134.179688"/>
      <use xlink:href="#TimesNewRomanPSMT-2c" x="184.179688"/>
      <use xlink:href="#TimesNewRomanPSMT-20" x="209.179688"/>
      <use xlink:href="#TimesNewRomanPSMT-76" x="234.179688"/>
      <use xlink:href="#TimesNewRomanPSMT-61" x="284.179688"/>
      <use xlink:href="#TimesNewRomanPSMT-72" x="328.564453"/>
      <use xlink:href="#TimesNewRomanPSMT-3d" x="361.865234"/>
      <use xlink:href="#TimesNewRomanPSMT-6c" x="418.261719"/>
      <use xlink:href="#TimesNewRomanPSMT-6f" x="446.044922"/>
      <use xlink:href="#TimesNewRomanPSMT-77" x="496.044922"/>
     </g>
    </g>
    <g id="line2d_69">
     <path d="M 531.206213 52.150874 
L 541.206213 52.150874 
L 551.206213 52.150874 
" style="fill: none; stroke-dasharray: 12.8,3.2,2,3.2; stroke-dashoffset: 0; stroke: #ff7f0e; stroke-opacity: 0.85; stroke-width: 2"/>
    </g>
    <g id="text_38">
     <!-- pt=2, var=neutral -->
     <g transform="translate(559.206213 55.650874) scale(0.1 -0.1)">
      <use xlink:href="#TimesNewRomanPSMT-70"/>
      <use xlink:href="#TimesNewRomanPSMT-74" x="50"/>
      <use xlink:href="#TimesNewRomanPSMT-3d" x="77.783203"/>
      <use xlink:href="#TimesNewRomanPSMT-32" x="134.179688"/>
      <use xlink:href="#TimesNewRomanPSMT-2c" x="184.179688"/>
      <use xlink:href="#TimesNewRomanPSMT-20" x="209.179688"/>
      <use xlink:href="#TimesNewRomanPSMT-76" x="234.179688"/>
      <use xlink:href="#TimesNewRomanPSMT-61" x="284.179688"/>
      <use xlink:href="#TimesNewRomanPSMT-72" x="328.564453"/>
      <use xlink:href="#TimesNewRomanPSMT-3d" x="361.865234"/>
      <use xlink:href="#TimesNewRomanPSMT-6e" x="418.261719"/>
      <use xlink:href="#TimesNewRomanPSMT-65" x="468.261719"/>
      <use xlink:href="#TimesNewRomanPSMT-75" x="512.646484"/>
      <use xlink:href="#TimesNewRomanPSMT-74" x="562.646484"/>
      <use xlink:href="#TimesNewRomanPSMT-72" x="590.429688"/>
      <use xlink:href="#TimesNewRomanPSMT-61" x="623.730469"/>
      <use xlink:href="#TimesNewRomanPSMT-6c" x="668.115234"/>
     </g>
    </g>
    <g id="line2d_70">
     <path d="M 531.206213 66.289936 
L 541.206213 66.289936 
L 551.206213 66.289936 
" style="fill: none; stroke-dasharray: 2,3.3; stroke-dashoffset: 0; stroke: #2ca02c; stroke-opacity: 0.85; stroke-width: 2"/>
    </g>
    <g id="text_39">
     <!-- pt=2, var=high -->
     <g transform="translate(559.206213 69.789936) scale(0.1 -0.1)">
      <defs>
       <path id="TimesNewRomanPSMT-68" d="M 1041 4444 
L 1041 2350 
Q 1388 2731 1591 2839 
Q 1794 2947 1997 2947 
Q 2241 2947 2416 2812 
Q 2591 2678 2675 2391 
Q 2734 2191 2734 1659 
L 2734 647 
Q 2734 375 2778 275 
Q 2809 200 2884 156 
Q 2959 113 3159 113 
L 3159 0 
L 1753 0 
L 1753 113 
L 1819 113 
Q 2019 113 2097 173 
Q 2175 234 2206 353 
Q 2216 403 2216 647 
L 2216 1659 
Q 2216 2128 2167 2275 
Q 2119 2422 2012 2495 
Q 1906 2569 1756 2569 
Q 1603 2569 1437 2487 
Q 1272 2406 1041 2159 
L 1041 647 
Q 1041 353 1073 281 
Q 1106 209 1195 161 
Q 1284 113 1503 113 
L 1503 0 
L 84 0 
L 84 113 
Q 275 113 384 172 
Q 447 203 484 290 
Q 522 378 522 647 
L 522 3238 
Q 522 3728 498 3840 
Q 475 3953 426 3993 
Q 378 4034 297 4034 
Q 231 4034 84 3984 
L 41 4094 
L 897 4444 
L 1041 4444 
z
" transform="scale(0.015625)"/>
       <path id="TimesNewRomanPSMT-67" d="M 966 1044 
Q 703 1172 562 1401 
Q 422 1631 422 1909 
Q 422 2334 742 2640 
Q 1063 2947 1563 2947 
Q 1972 2947 2272 2747 
L 2878 2747 
Q 3013 2747 3034 2739 
Q 3056 2731 3066 2713 
Q 3084 2684 3084 2613 
Q 3084 2531 3069 2500 
Q 3059 2484 3036 2475 
Q 3013 2466 2878 2466 
L 2506 2466 
Q 2681 2241 2681 1891 
Q 2681 1491 2375 1206 
Q 2069 922 1553 922 
Q 1341 922 1119 984 
Q 981 866 932 777 
Q 884 688 884 625 
Q 884 572 936 522 
Q 988 472 1138 450 
Q 1225 438 1575 428 
Q 2219 413 2409 384 
Q 2700 344 2873 169 
Q 3047 -6 3047 -263 
Q 3047 -616 2716 -925 
Q 2228 -1381 1444 -1381 
Q 841 -1381 425 -1109 
Q 191 -953 191 -784 
Q 191 -709 225 -634 
Q 278 -519 444 -313 
Q 466 -284 763 25 
Q 600 122 533 198 
Q 466 275 466 372 
Q 466 481 555 628 
Q 644 775 966 1044 
z
M 1509 2797 
Q 1278 2797 1122 2612 
Q 966 2428 966 2047 
Q 966 1553 1178 1281 
Q 1341 1075 1591 1075 
Q 1828 1075 1981 1253 
Q 2134 1431 2134 1813 
Q 2134 2309 1919 2591 
Q 1759 2797 1509 2797 
z
M 934 0 
Q 788 -159 713 -296 
Q 638 -434 638 -550 
Q 638 -700 819 -813 
Q 1131 -1006 1722 -1006 
Q 2284 -1006 2551 -807 
Q 2819 -609 2819 -384 
Q 2819 -222 2659 -153 
Q 2497 -84 2016 -72 
Q 1313 -53 934 0 
z
" transform="scale(0.015625)"/>
      </defs>
      <use xlink:href="#TimesNewRomanPSMT-70"/>
      <use xlink:href="#TimesNewRomanPSMT-74" x="50"/>
      <use xlink:href="#TimesNewRomanPSMT-3d" x="77.783203"/>
      <use xlink:href="#TimesNewRomanPSMT-32" x="134.179688"/>
      <use xlink:href="#TimesNewRomanPSMT-2c" x="184.179688"/>
      <use xlink:href="#TimesNewRomanPSMT-20" x="209.179688"/>
      <use xlink:href="#TimesNewRomanPSMT-76" x="234.179688"/>
      <use xlink:href="#TimesNewRomanPSMT-61" x="284.179688"/>
      <use xlink:href="#TimesNewRomanPSMT-72" x="328.564453"/>
      <use xlink:href="#TimesNewRomanPSMT-3d" x="361.865234"/>
      <use xlink:href="#TimesNewRomanPSMT-68" x="418.261719"/>
      <use xlink:href="#TimesNewRomanPSMT-69" x="468.261719"/>
      <use xlink:href="#TimesNewRomanPSMT-67" x="496.044922"/>
      <use xlink:href="#TimesNewRomanPSMT-68" x="546.044922"/>
     </g>
    </g>
   </g>
  </g>
  <g id="text_40">
   <!-- Effect of the exponential distribution and the added variability on the process times -->
   <g transform="translate(154.490396 18.962421) scale(0.12 -0.12)">
    <defs>
     <path id="TimesNewRomanPSMT-45" d="M 1338 4006 
L 1338 2331 
L 2269 2331 
Q 2631 2331 2753 2441 
Q 2916 2584 2934 2947 
L 3050 2947 
L 3050 1472 
L 2934 1472 
Q 2891 1781 2847 1869 
Q 2791 1978 2662 2040 
Q 2534 2103 2269 2103 
L 1338 2103 
L 1338 706 
Q 1338 425 1363 364 
Q 1388 303 1450 267 
Q 1513 231 1688 231 
L 2406 231 
Q 2766 231 2928 281 
Q 3091 331 3241 478 
Q 3434 672 3638 1063 
L 3763 1063 
L 3397 0 
L 131 0 
L 131 116 
L 281 116 
Q 431 116 566 188 
Q 666 238 702 338 
Q 738 438 738 747 
L 738 3500 
Q 738 3903 656 3997 
Q 544 4122 281 4122 
L 131 4122 
L 131 4238 
L 3397 4238 
L 3444 3309 
L 3322 3309 
Q 3256 3644 3176 3769 
Q 3097 3894 2941 3959 
Q 2816 4006 2500 4006 
L 1338 4006 
z
" transform="scale(0.015625)"/>
     <path id="TimesNewRomanPSMT-66" d="M 1319 2638 
L 1319 756 
Q 1319 356 1406 250 
Q 1522 113 1716 113 
L 1975 113 
L 1975 0 
L 266 0 
L 266 113 
L 394 113 
Q 519 113 622 175 
Q 725 238 764 344 
Q 803 450 803 756 
L 803 2638 
L 247 2638 
L 247 2863 
L 803 2863 
L 803 3050 
Q 803 3478 940 3775 
Q 1078 4072 1361 4255 
Q 1644 4438 1997 4438 
Q 2325 4438 2600 4225 
Q 2781 4084 2781 3909 
Q 2781 3816 2700 3733 
Q 2619 3650 2525 3650 
Q 2453 3650 2373 3701 
Q 2294 3753 2178 3923 
Q 2063 4094 1966 4153 
Q 1869 4213 1750 4213 
Q 1606 4213 1506 4136 
Q 1406 4059 1362 3898 
Q 1319 3738 1319 3069 
L 1319 2863 
L 2056 2863 
L 2056 2638 
L 1319 2638 
z
" transform="scale(0.015625)"/>
     <path id="TimesNewRomanPSMT-78" d="M 84 2863 
L 1431 2863 
L 1431 2747 
Q 1303 2747 1251 2703 
Q 1200 2659 1200 2588 
Q 1200 2513 1309 2356 
Q 1344 2306 1413 2200 
L 1616 1875 
L 1850 2200 
Q 2075 2509 2075 2591 
Q 2075 2656 2022 2701 
Q 1969 2747 1850 2747 
L 1850 2863 
L 2819 2863 
L 2819 2747 
Q 2666 2738 2553 2663 
Q 2400 2556 2134 2200 
L 1744 1678 
L 2456 653 
Q 2719 275 2831 198 
Q 2944 122 3122 113 
L 3122 0 
L 1772 0 
L 1772 113 
Q 1913 113 1991 175 
Q 2050 219 2050 291 
Q 2050 363 1850 653 
L 1431 1266 
L 972 653 
Q 759 369 759 316 
Q 759 241 829 180 
Q 900 119 1041 113 
L 1041 0 
L 106 0 
L 106 113 
Q 219 128 303 191 
Q 422 281 703 653 
L 1303 1450 
L 759 2238 
Q 528 2575 401 2661 
Q 275 2747 84 2747 
L 84 2863 
z
" transform="scale(0.015625)"/>
    </defs>
    <use xlink:href="#TimesNewRomanPSMT-45"/>
    <use xlink:href="#TimesNewRomanPSMT-66" x="61.083984"/>
    <use xlink:href="#TimesNewRomanPSMT-66" x="92.634766"/>
    <use xlink:href="#TimesNewRomanPSMT-65" x="125.935547"/>
    <use xlink:href="#TimesNewRomanPSMT-63" x="170.320312"/>
    <use xlink:href="#TimesNewRomanPSMT-74" x="214.705078"/>
    <use xlink:href="#TimesNewRomanPSMT-20" x="242.488281"/>
    <use xlink:href="#TimesNewRomanPSMT-6f" x="267.488281"/>
    <use xlink:href="#TimesNewRomanPSMT-66" x="317.488281"/>
    <use xlink:href="#TimesNewRomanPSMT-20" x="350.789062"/>
    <use xlink:href="#TimesNewRomanPSMT-74" x="375.789062"/>
    <use xlink:href="#TimesNewRomanPSMT-68" x="403.572266"/>
    <use xlink:href="#TimesNewRomanPSMT-65" x="453.572266"/>
    <use xlink:href="#TimesNewRomanPSMT-20" x="497.957031"/>
    <use xlink:href="#TimesNewRomanPSMT-65" x="522.957031"/>
    <use xlink:href="#TimesNewRomanPSMT-78" x="567.341797"/>
    <use xlink:href="#TimesNewRomanPSMT-70" x="617.341797"/>
    <use xlink:href="#TimesNewRomanPSMT-6f" x="667.341797"/>
    <use xlink:href="#TimesNewRomanPSMT-6e" x="717.341797"/>
    <use xlink:href="#TimesNewRomanPSMT-65" x="767.341797"/>
    <use xlink:href="#TimesNewRomanPSMT-6e" x="811.726562"/>
    <use xlink:href="#TimesNewRomanPSMT-74" x="861.726562"/>
    <use xlink:href="#TimesNewRomanPSMT-69" x="889.509766"/>
    <use xlink:href="#TimesNewRomanPSMT-61" x="917.292969"/>
    <use xlink:href="#TimesNewRomanPSMT-6c" x="961.677734"/>
    <use xlink:href="#TimesNewRomanPSMT-20" x="989.460938"/>
    <use xlink:href="#TimesNewRomanPSMT-64" x="1014.460938"/>
    <use xlink:href="#TimesNewRomanPSMT-69" x="1064.460938"/>
    <use xlink:href="#TimesNewRomanPSMT-73" x="1092.244141"/>
    <use xlink:href="#TimesNewRomanPSMT-74" x="1131.160156"/>
    <use xlink:href="#TimesNewRomanPSMT-72" x="1158.943359"/>
    <use xlink:href="#TimesNewRomanPSMT-69" x="1192.244141"/>
    <use xlink:href="#TimesNewRomanPSMT-62" x="1220.027344"/>
    <use xlink:href="#TimesNewRomanPSMT-75" x="1270.027344"/>
    <use xlink:href="#TimesNewRomanPSMT-74" x="1320.027344"/>
    <use xlink:href="#TimesNewRomanPSMT-69" x="1347.810547"/>
    <use xlink:href="#TimesNewRomanPSMT-6f" x="1375.59375"/>
    <use xlink:href="#TimesNewRomanPSMT-6e" x="1425.59375"/>
    <use xlink:href="#TimesNewRomanPSMT-20" x="1475.59375"/>
    <use xlink:href="#TimesNewRomanPSMT-61" x="1500.59375"/>
    <use xlink:href="#TimesNewRomanPSMT-6e" x="1544.978516"/>
    <use xlink:href="#TimesNewRomanPSMT-64" x="1594.978516"/>
    <use xlink:href="#TimesNewRomanPSMT-20" x="1644.978516"/>
    <use xlink:href="#TimesNewRomanPSMT-74" x="1669.978516"/>
    <use xlink:href="#TimesNewRomanPSMT-68" x="1697.761719"/>
    <use xlink:href="#TimesNewRomanPSMT-65" x="1747.761719"/>
    <use xlink:href="#TimesNewRomanPSMT-20" x="1792.146484"/>
    <use xlink:href="#TimesNewRomanPSMT-61" x="1817.146484"/>
    <use xlink:href="#TimesNewRomanPSMT-64" x="1861.53125"/>
    <use xlink:href="#TimesNewRomanPSMT-64" x="1911.53125"/>
    <use xlink:href="#TimesNewRomanPSMT-65" x="1961.53125"/>
    <use xlink:href="#TimesNewRomanPSMT-64" x="2005.916016"/>
    <use xlink:href="#TimesNewRomanPSMT-20" x="2055.916016"/>
    <use xlink:href="#TimesNewRomanPSMT-76" x="2080.916016"/>
    <use xlink:href="#TimesNewRomanPSMT-61" x="2130.916016"/>
    <use xlink:href="#TimesNewRomanPSMT-72" x="2175.300781"/>
    <use xlink:href="#TimesNewRomanPSMT-69" x="2208.601562"/>
    <use xlink:href="#TimesNewRomanPSMT-61" x="2236.384766"/>
    <use xlink:href="#TimesNewRomanPSMT-62" x="2280.769531"/>
    <use xlink:href="#TimesNewRomanPSMT-69" x="2330.769531"/>
    <use xlink:href="#TimesNewRomanPSMT-6c" x="2358.552734"/>
    <use xlink:href="#TimesNewRomanPSMT-69" x="2386.335938"/>
    <use xlink:href="#TimesNewRomanPSMT-74" x="2414.119141"/>
    <use xlink:href="#TimesNewRomanPSMT-79" x="2441.902344"/>
    <use xlink:href="#TimesNewRomanPSMT-20" x="2491.902344"/>
    <use xlink:href="#TimesNewRomanPSMT-6f" x="2516.902344"/>
    <use xlink:href="#TimesNewRomanPSMT-6e" x="2566.902344"/>
    <use xlink:href="#TimesNewRomanPSMT-20" x="2616.902344"/>
    <use xlink:href="#TimesNewRomanPSMT-74" x="2641.902344"/>
    <use xlink:href="#TimesNewRomanPSMT-68" x="2669.685547"/>
    <use xlink:href="#TimesNewRomanPSMT-65" x="2719.685547"/>
    <use xlink:href="#TimesNewRomanPSMT-20" x="2764.070312"/>
    <use xlink:href="#TimesNewRomanPSMT-70" x="2789.070312"/>
    <use xlink:href="#TimesNewRomanPSMT-72" x="2839.070312"/>
    <use xlink:href="#TimesNewRomanPSMT-6f" x="2872.371094"/>
    <use xlink:href="#TimesNewRomanPSMT-63" x="2922.371094"/>
    <use xlink:href="#TimesNewRomanPSMT-65" x="2966.755859"/>
    <use xlink:href="#TimesNewRomanPSMT-73" x="3011.140625"/>
    <use xlink:href="#TimesNewRomanPSMT-73" x="3050.056641"/>
    <use xlink:href="#TimesNewRomanPSMT-20" x="3088.972656"/>
    <use xlink:href="#TimesNewRomanPSMT-74" x="3113.972656"/>
    <use xlink:href="#TimesNewRomanPSMT-69" x="3141.755859"/>
    <use xlink:href="#TimesNewRomanPSMT-6d" x="3169.539062"/>
    <use xlink:href="#TimesNewRomanPSMT-65" x="3247.322266"/>
    <use xlink:href="#TimesNewRomanPSMT-73" x="3291.707031"/>
   </g>
  </g>
 </g>
 <defs>
  <clipPath id="p4316b709e3">
   <rect x="88.582677" y="25.511811" width="249.64209" height="163.700787"/>
  </clipPath>
  <clipPath id="pe845c0ddcd">
   <rect x="388.153185" y="25.511811" width="249.64209" height="163.700787"/>
  </clipPath>
 </defs>
</svg>
